<?xml version="1.0" encoding="utf-8"?>
<!-- Generator: Adobe Illustrator 17.1.0, SVG Export Plug-In . SVG Version: 6.00 Build 0)  -->
<!DOCTYPE svg PUBLIC "-//W3C//DTD SVG 1.1//EN" "http://www.w3.org/Graphics/SVG/1.1/DTD/svg11.dtd">
<svg version="1.1" id="レイヤー_1" xmlns="http://www.w3.org/2000/svg" xmlns:xlink="http://www.w3.org/1999/xlink" x="0px"
	 y="0px" viewBox="108.5 108.5 350 350" enable-background="new 108.5 108.5 350 350" xml:space="preserve">
<path fill="#B43E4C" d="M256.9,388.8"/>
<path fill-rule="evenodd" clip-rule="evenodd" fill="#188AB4" d="M283.6,458.5h-0.2c-96.6-0.1-174.9-78.4-174.9-175
	c0-96.6,78.4-175,175-175s175,78.4,175,175C458.5,380.1,380.2,458.4,283.6,458.5L283.6,458.5z"/>
<path fill-rule="evenodd" clip-rule="evenodd" fill="#0D677E" d="M342,224.8"/>
<path fill-rule="evenodd" clip-rule="evenodd" fill="#0D677E" d="M311.6,180.5l142.8,137.2c-4.6,59-64.7,123.5-139.1,137.9
	L174.7,311.9l54.8-7.3"/>
<g>
	<path fill="#FFFFFF" d="M403.3,301.6c0,9.3-7.6,16.9-16.9,16.9H188c-9.3,0-16.9-7.6-16.9-16.9V279c0-9.3,7.6-16.9,16.9-16.9h198.4
		c9.3,0,16.9,7.6,16.9,16.9V301.6z"/>
	<path fill="#FFFFFF" d="M298.5,174.2c9.3,0,16.9,7.6,16.9,16.9v198.4c0,9.3-7.6,16.9-16.9,16.9h-22.6c-9.3,0-16.9-7.6-16.9-16.9
		V191.1c0-9.3,7.6-16.9,16.9-16.9H298.5z"/>
</g>
</svg>
