<?xml version="1.0" encoding="utf-8"?>
<!-- Generator: Adobe Illustrator 17.1.0, SVG Export Plug-In . SVG Version: 6.00 Build 0)  -->
<!DOCTYPE svg PUBLIC "-//W3C//DTD SVG 1.1//EN" "http://www.w3.org/Graphics/SVG/1.1/DTD/svg11.dtd">
<svg version="1.1" id="レイヤー_1" xmlns="http://www.w3.org/2000/svg" xmlns:xlink="http://www.w3.org/1999/xlink" x="0px"
	 y="0px" viewBox="0 0 350 350" enable-background="new 0 0 350 350" xml:space="preserve">
<path fill-rule="evenodd" clip-rule="evenodd" fill="#5FB75A" d="M175.1,0h-0.2C78.3,0.1,0,78.4,0,175c0,96.6,78.4,175,175,175
	c96.6,0,175-78.4,175-175C350,78.4,271.7,0.1,175.1,0L175.1,0z"/>
<path fill-rule="evenodd" clip-rule="evenodd" fill="#419240" d="M156.1,90.7l50.7,46.9l31.9,21.3l95.2,89.3
	c-18.8,33.3-43.3,64.9-94.1,89L58.7,166.6l58,32.4"/>
<g>
	<path fill="#FFFFFF" d="M284.2,243c-0.1,0-0.3-0.1-0.4-0.2c-40-47.6-85.4-54.7-108.9-54.7c-11.7,0-19.6,1.7-21.4,2.1v48.4
		c0,0.2-0.1,0.4-0.3,0.5c-0.1,0-0.1,0-0.2,0c-0.1,0-0.2,0-0.3-0.1l-91.2-76.3c-0.1-0.1-0.2-0.2-0.2-0.4s0.1-0.3,0.2-0.4l91.2-71.5
		c0.1-0.1,0.2-0.1,0.3-0.1c0.1,0,0.1,0,0.2,0c0.2,0.1,0.3,0.2,0.3,0.4l1.1,39.2c0.2,0,0.4,0,0.6,0c5.6,0,35,1.1,69.4,22.1
		c19.9,12.2,35.2,36.1,44.4,54c10.1,19.4,15.5,36.1,15.5,36.3c0.1,0.2,0,0.5-0.2,0.6C284.4,242.9,284.3,243,284.2,243z"/>
	<path fill="#FFFFFF" d="M153,90.7l1.2,39.7c0,0,0.4,0,1.1,0c5.9,0,35,1.1,69.2,22c38.3,23.4,59.8,90,59.8,90
		c-39.3-46.8-83.5-54.9-109.3-54.9c-13.5,0-21.9,2.2-21.9,2.2v48.8l-91.2-76.3L153,90.7 M153,89.7c-0.2,0-0.4,0.1-0.6,0.2
		l-91.2,71.5c-0.2,0.2-0.4,0.5-0.4,0.8c0,0.3,0.1,0.6,0.4,0.8l91.2,76.3c0.2,0.2,0.4,0.2,0.6,0.2c0.1,0,0.3,0,0.4-0.1
		c0.4-0.2,0.6-0.5,0.6-0.9v-48c2.3-0.5,10-2,20.9-2c16.8,0,33.3,3.3,49.2,9.8c22.1,9,42,24.1,59.3,44.7c0.2,0.2,0.5,0.4,0.8,0.4
		c0.2,0,0.3,0,0.5-0.1c0.4-0.2,0.6-0.7,0.5-1.2c-0.1-0.2-5.5-16.9-15.6-36.4c-9.3-18-24.6-42-44.6-54.2
		c-34.5-21.1-64.1-22.2-69.7-22.2c0,0-0.1,0-0.1,0L154,90.7c0-0.4-0.2-0.7-0.6-0.9C153.3,89.8,153.1,89.7,153,89.7L153,89.7z"/>
</g>
</svg>
