<?xml version="1.0" encoding="utf-8"?>
<!-- Generator: Adobe Illustrator 17.1.0, SVG Export Plug-In . SVG Version: 6.00 Build 0)  -->
<!DOCTYPE svg PUBLIC "-//W3C//DTD SVG 1.1//EN" "http://www.w3.org/Graphics/SVG/1.1/DTD/svg11.dtd">
<svg version="1.1" id="レイヤー_1" xmlns="http://www.w3.org/2000/svg" xmlns:xlink="http://www.w3.org/1999/xlink" x="0px"
	 y="0px" viewBox="0 0 350 350" enable-background="new 0 0 350 350" xml:space="preserve">
<rect x="20.2" y="154.8" fill="#FFFFFF" width="310.4" height="166.1"/>
<rect x="18.3" y="48.6" fill="#E71F19" width="310.4" height="115.2"/>
<g>
	<g>
		<g>
			<path fill="#5E8DCA" d="M315.7,26.9h-36.4V15.7c0-12-8.5-15.7-21.9-15.7c-11.2,0-18.8,3.7-18.8,15.7v11.2h-44.9V15.7
				c0-12-7-15.7-17-15.7c-11.2,0-20.9,3.7-20.9,15.7v11.2h-41.4V15.7c0-12-10.5-15.7-22.5-15.7c-8.5,0-17.6,3.7-17.6,15.7v11.2H37.9
				C15.3,26.9,0,44.6,0,64.2v248.1C0,332.4,15.3,350,37.9,350h277.8c21.1,0,34.3-17.6,34.3-37.7V64.2
				C350,44.6,336.8,26.9,315.7,26.9z M91.8,99.7c12,0,22.5-13.1,22.5-19.7V67.3h41.4V80c0,6.6,9.7,19.7,20.9,19.7
				c9.9,0,17-13.1,17-19.7V67.3h44.9V80c0,6.6,7.7,19.7,18.8,19.7c13.4,0,21.9-13.1,21.9-19.7V67.3h35v240.8H37.9V67.3h36.4V80
				C74.3,86.6,83.4,99.7,91.8,99.7z"/>
		</g>
		<g>
			<rect x="61.6" y="184" fill="#5E8DCA" width="52.7" height="42.3"/>
		</g>
		<g>
			<rect x="61.6" y="249.7" fill="#5E8DCA" width="52.7" height="37.9"/>
		</g>
		<g>
			<rect x="148.7" y="249.7" fill="#5E8DCA" width="53.4" height="37.9"/>
		</g>
		<g>
			<rect x="148.7" y="184" fill="#5E8DCA" width="53.4" height="42.3"/>
		</g>
		<g>
			<rect x="242.6" y="249.7" fill="#F18C1F" width="49.8" height="37.9"/>
		</g>
		<g>
			<rect x="242.6" y="184" fill="#5E8DCA" width="49.8" height="42.3"/>
		</g>
	</g>
</g>
</svg>
