<?xml version="1.0" encoding="utf-8"?>
<!-- Generator: Adobe Illustrator 17.1.0, SVG Export Plug-In . SVG Version: 6.00 Build 0)  -->
<!DOCTYPE svg PUBLIC "-//W3C//DTD SVG 1.1//EN" "http://www.w3.org/Graphics/SVG/1.1/DTD/svg11.dtd">
<svg version="1.1" id="レイヤー_1" xmlns="http://www.w3.org/2000/svg" xmlns:xlink="http://www.w3.org/1999/xlink" x="0px"
	 y="0px" viewBox="0 0 350 350" enable-background="new 0 0 350 350" xml:space="preserve">
<path fill="#AD86BC" d="M350,173.9v1.1c0,0.7,0,1.3,0,2v0.2c0,1.2,0,2.4-0.1,3.6c0,0.2,0,0.4,0,0.6c0,0.1,0,0.2,0,0.3
	c0,0.4,0,0.8-0.1,1.2v0c-0.1,2.2-0.2,4.5-0.4,6.7c0,0.5-0.1,1-0.1,1.6c-0.1,0.6-0.1,1.1-0.2,1.7c0,0.4-0.1,0.8-0.1,1.2
	c-0.3,2.6-0.6,5.1-1,7.7c-0.1,0.8-0.2,1.5-0.4,2.3c-0.1,0.4-0.1,0.7-0.2,1.1c-0.2,0.9-0.3,1.9-0.5,2.8c0,0,0,0,0,0
	c-0.4,2.3-0.9,4.6-1.5,6.9c-0.4,1.9-0.9,3.8-1.4,5.6c-0.4,1.3-0.7,2.6-1.1,3.9c-1.1,3.7-2.3,7.3-3.6,10.8c-0.5,1.5-1.1,2.9-1.7,4.3
	c-0.1,0.3-0.3,0.7-0.4,1c-0.1,0.3-0.2,0.5-0.3,0.8c-5.4,13.2-12.4,25.6-20.7,37c-2.4,3.3-4.9,6.4-7.5,9.5
	c-19.9,23.7-46,42-75.9,52.5c0,0,0,0,0,0c-0.2,0.1-0.4,0.1-0.6,0.2c-0.5,0.2-0.9,0.3-1.4,0.5c-1.3,0.4-2.6,0.9-3.9,1.3c0,0,0,0,0,0
	c-0.8,0.3-1.7,0.5-2.5,0.8c-1.5,0.5-3.1,0.9-4.7,1.3c-1.2,0.3-2.3,0.6-3.5,0.9c-0.7,0.2-1.4,0.4-2.1,0.5c-0.5,0.1-1,0.2-1.5,0.3
	c-0.1,0-0.3,0.1-0.5,0.1c-0.6,0.2-1.3,0.3-2,0.4c-0.1,0-0.2,0-0.3,0.1c-1.1,0.2-2.2,0.4-3.3,0.6c-1.2,0.2-2.4,0.4-3.5,0.6
	c-0.1,0-0.1,0-0.2,0c-0.2,0-0.4,0.1-0.6,0.1c-0.2,0-0.4,0.1-0.5,0.1c-1.3,0.2-2.7,0.4-4,0.6c-4,0.5-7.9,0.9-12,1.2
	c-0.3,0-0.6,0-0.8,0c-1.6,0.1-3.3,0.2-5,0.2c-1.7,0-3.4,0.1-5.1,0.1c-1.1,0-2.3,0-3.4,0c-0.7,0-1.4,0-2.2-0.1c-0.5,0-1,0-1.6-0.1
	c-2-0.1-3.9-0.2-5.8-0.3c-0.3,0-0.5,0-0.8-0.1c-0.1,0-0.2,0-0.3,0c-1.7-0.1-3.4-0.3-5-0.5c-1.4-0.1-2.9-0.3-4.3-0.5
	c-0.4-0.1-0.9-0.1-1.3-0.2c-0.8-0.1-1.6-0.2-2.3-0.4c-0.6-0.1-1.1-0.2-1.7-0.3c-2.9-0.5-5.8-1-8.7-1.7c-1.3-0.3-2.6-0.6-3.9-0.9
	c-0.4-0.1-0.8-0.2-1.2-0.3c-1-0.2-2-0.5-3-0.8c-1-0.3-2-0.6-3-0.8c-5.1-1.5-10.1-3.2-15-5.1c-1.9-0.7-3.8-1.5-5.7-2.3
	c-0.1-0.1-0.2-0.1-0.3-0.1c-7-3-13.8-6.5-20.3-10.4c-31.2-18.7-56.1-46.8-70.8-80.4c-9.9-22.6-15.1-47.7-14.5-74.1
	c0.4-17.3,3.4-34,8.5-49.7c0-0.1,0.1-0.2,0.1-0.2c0.7-2.3,1.5-4.6,2.4-6.8c1.9-5,4-10,6.3-14.8l0.1-0.3l2.8-5.4l0.2-0.4
	c29.9-56,89.4-94,156.8-93.1c81.9,1.1,150.3,58.4,168.1,135.1c0.3,1.2,0.5,2.4,0.8,3.5c0.1,0.6,0.2,1.2,0.4,1.7
	c0.4,2.2,0.9,4.4,1.2,6.6c0.2,1.4,0.4,2.7,0.6,4.1c0.2,1.5,0.4,3,0.5,4.5c0,0.4,0.1,0.7,0.1,1.1c0.1,0.5,0.1,1,0.2,1.6
	c0,0.4,0.1,0.8,0.1,1.2c0.1,1,0.2,2,0.2,3c0.2,2.5,0.3,5,0.4,7.6C350,171.3,350,172.6,350,173.9z"/>
<path fill="#775A84" d="M350,173.9v1.1c0,0.7,0,1.3,0,2v0.2c0,1.2,0,2.4-0.1,3.6c0,0.2,0,0.4,0,0.6c0,0.1,0,0.2,0,0.3
	c0,0.4,0,0.8-0.1,1.2v0c-0.1,2.2-0.2,4.5-0.4,6.7c0,0.5-0.1,1-0.1,1.6c-0.1,0.6-0.1,1.1-0.2,1.7c0,0.4-0.1,0.8-0.1,1.2
	c-0.3,2.6-0.6,5.1-1,7.7c-0.1,0.8-0.2,1.5-0.4,2.3c-0.1,0.4-0.1,0.7-0.2,1.1c-0.2,0.9-0.3,1.9-0.5,2.8c0,0,0,0,0,0
	c-0.4,2.3-0.9,4.6-1.5,6.9c-0.4,1.9-0.9,3.8-1.4,5.6c-0.4,1.3-0.7,2.6-1.1,3.9c-1.1,3.7-2.3,7.3-3.6,10.8c-0.5,1.5-1.1,2.9-1.7,4.3
	c-0.1,0.3-0.3,0.7-0.4,1c-0.1,0.3-0.2,0.5-0.3,0.8c-5.4,13.2-12.4,25.6-20.7,37c-2.4,3.3-4.9,6.4-7.5,9.5
	c-19.9,23.7-46,42-75.9,52.5c0,0,0,0,0,0c-0.2,0.1-0.4,0.1-0.6,0.2c-0.5,0.2-0.9,0.3-1.4,0.5c-1.3,0.4-2.6,0.9-3.9,1.3c0,0,0,0,0,0
	c-0.8,0.3-1.7,0.5-2.5,0.8c-1.5,0.5-3.1,0.9-4.7,1.3c-1.2,0.3-2.3,0.6-3.5,0.9c-0.7,0.2-1.4,0.4-2.1,0.5c-0.5,0.1-1,0.2-1.5,0.3
	c-0.1,0-0.3,0.1-0.5,0.1c-0.6,0.2-1.3,0.3-2,0.4c-0.1,0-0.2,0-0.3,0.1c-1.1,0.2-2.2,0.4-3.3,0.6c-1.2,0.2-2.4,0.4-3.5,0.6
	c-0.1,0-0.1,0-0.2,0c-0.2,0-0.4,0.1-0.6,0.1c-0.2,0-0.4,0.1-0.5,0.1c-1.3,0.2-2.7,0.4-4,0.6c-4,0.5-7.9,0.9-12,1.2
	c-0.3,0-0.6,0-0.8,0c-1.6,0.1-3.3,0.2-5,0.2c-1.7,0-3.4,0.1-5.1,0.1c-1.1,0-2.3,0-3.4,0c-0.7,0-1.4,0-2.2-0.1c-0.5,0-1,0-1.6-0.1
	c-2-0.1-3.9-0.2-5.8-0.3c-0.3,0-0.5,0-0.8-0.1c-0.1,0-0.2,0-0.3,0c-1.7-0.1-3.4-0.3-5-0.5c-1.4-0.1-2.9-0.3-4.3-0.5
	c-0.4-0.1-0.9-0.1-1.3-0.2c-0.8-0.1-1.6-0.2-2.3-0.4c-0.6-0.1-1.1-0.2-1.7-0.3c-2.9-0.5-5.8-1-8.7-1.7l-71.2-71.4L272.1,79.8
	l76.9,76.9c0.1,0.5,0.1,1,0.2,1.6c0,0.4,0.1,0.8,0.1,1.2c0.1,1,0.2,2,0.2,3c0.2,2.5,0.3,5,0.4,7.6C350,171.3,350,172.6,350,173.9z"
	/>
<g>
	<path fill="#FFFFFF" stroke="#FFFFFD" stroke-miterlimit="10" d="M202.9,125v144.8c0,2.6-2.1,4.7-4.6,4.7H68.8
		c-1.5,0-2.8-0.7-3.7-1.8c-0.6-0.8-1-1.8-1-2.8V95.5c0-2.6,2.1-4.7,4.7-4.7h100.1l18.4,18.5L202.9,125z"/>
	<rect x="82.1" y="108.3" fill="#C9BE98" width="100.9" height="6.1"/>
	<rect x="82.1" y="127.3" fill="#C9BE98" width="105.2" height="6.1"/>
	<rect x="82.1" y="145" fill="#C9BE98" width="105.2" height="6.1"/>
	<rect x="82.1" y="163" fill="#C9BE98" width="105.2" height="6.1"/>
	<rect x="82.1" y="182" fill="#C9BE98" width="105.2" height="6.1"/>
	<rect x="82.1" y="201.4" fill="#C9BE98" width="60.9" height="6.1"/>
	<path fill="#BFB48A" d="M202.9,124.5h-28.3c-2.9,0-5.3-2.4-5.3-5.3V91L202.9,124.5z"/>
</g>
<g>
	<path fill="#FFFFFF" d="M285.9,93.5v144.8c0,2.6-2.1,4.7-4.6,4.7H151.7c-1.5,0-2.8-0.7-3.7-1.8c-0.6-0.8-1-1.8-1-2.8V63.9
		c0-2.6,2.1-4.7,4.7-4.7h100.1l18.4,18.5L285.9,93.5z"/>
	<rect x="165.1" y="76.8" fill="#C9BE98" width="100.9" height="6.1"/>
	<rect x="165.1" y="95.7" fill="#C9BE98" width="105.2" height="6.1"/>
	<rect x="165.1" y="113.5" fill="#C9BE98" width="105.2" height="6.1"/>
	<rect x="165.1" y="131.5" fill="#C9BE98" width="105.2" height="6.1"/>
	<rect x="165.1" y="150.4" fill="#C9BE98" width="105.2" height="6.1"/>
	<rect x="165.1" y="169.9" fill="#C9BE98" width="60.9" height="6.1"/>
	<path fill="#959595" d="M285.9,93h-28.3c-2.9,0-5.3-2.4-5.3-5.3V59.4L285.9,93z"/>
	<path opacity="0.5" fill="#FFFFFF" d="M215.5,59.3V243h-63.8c-1.5,0-2.8-0.7-3.7-1.8c-0.6-0.8-1-1.8-1-2.8V63.9
		c0-2.6,2.1-4.7,4.7-4.7H215.5z"/>
</g>
</svg>
