<?xml version="1.0" encoding="utf-8"?>
<!-- Generator: Adobe Illustrator 17.1.0, SVG Export Plug-In . SVG Version: 6.00 Build 0)  -->
<!DOCTYPE svg PUBLIC "-//W3C//DTD SVG 1.1//EN" "http://www.w3.org/Graphics/SVG/1.1/DTD/svg11.dtd">
<svg version="1.1" id="レイヤー_1" xmlns="http://www.w3.org/2000/svg" xmlns:xlink="http://www.w3.org/1999/xlink" x="0px"
	 y="0px" viewBox="0 0 350 350" enable-background="new 0 0 350 350" xml:space="preserve">
<path fill-rule="evenodd" clip-rule="evenodd" fill="#E8BF1F" d="M175.1,350h-0.2C78.3,349.9,0,271.6,0,175C0,78.4,78.4,0,175,0
	c96.6,0,175,78.4,175,175C350,271.6,271.7,349.9,175.1,350L175.1,350z"/>
<path fill-rule="evenodd" clip-rule="evenodd" fill="#E8961C" d="M200.6,348.1l-81.5-81.5l9.3-97.6l-21.7-21.7l17.5-5.5l-19.5-19.5
	l52-15.3l9.3-22.7l24.3-0.9l28.6,28.6l21.2-6.7l106.1,106.1C331.2,282.4,273.1,337.5,200.6,348.1L200.6,348.1z"/>
<path fill="#FFFFFF" d="M164.8,99.1h20.5c0-0.1,0-0.3,0-0.5c0-2.8-1.1-5.4-3-7.2c-1.9-1.9-4.4-3-7.2-3c-2.8,0-5.4,1.1-7.2,3l0,0
	c-1.9,1.9-3,4.4-3,7.2C164.8,98.9,164.8,99,164.8,99.1L164.8,99.1z M124.5,99.1h28.8l0-0.5c0-6,2.4-11.4,6.4-15.3
	c3.9-3.9,9.3-6.4,15.3-6.4c6,0,11.4,2.4,15.3,6.4c3.9,3.9,6.4,9.3,6.4,15.3l0,0.5h28.8c5.7,0,10.9,2.3,14.7,6.1
	c3.8,3.8,6.1,9,6.1,14.7v0c0,0.9-0.4,1.7-1,2.3c-0.6,0.6-1.4,1-2.3,1H107.1c-0.9,0-1.7-0.4-2.3-1c-0.6-0.6-1-1.4-1-2.3v0
	c0-5.7,2.3-10.9,6.1-14.7C113.6,101.5,118.8,99.1,124.5,99.1L124.5,99.1z M169.7,164.3v81.5c0,1.8,0.6,3.5,1.6,4.7
	c1,1.2,2.3,1.9,3.7,1.9h0c1.4,0,2.8-0.7,3.7-1.9c1-1.2,1.6-2.9,1.6-4.7v-81.5c0-1.8-0.6-3.5-1.6-4.7c-1-1.2-2.3-1.9-3.7-1.9h0
	c-1.4,0-2.8,0.7-3.7,1.9C170.3,160.8,169.7,162.5,169.7,164.3L169.7,164.3z M203.4,164.3v81.5c0,1.8,0.6,3.5,1.6,4.7
	c1,1.2,2.3,1.9,3.7,1.9l0,0c1.4,0,2.8-0.7,3.7-1.9c1-1.2,1.6-2.9,1.6-4.7v-81.5c0-1.8-0.6-3.5-1.6-4.7c-1-1.2-2.3-1.9-3.7-1.9l0,0
	c-1.4,0-2.8,0.7-3.7,1.9C204.1,160.8,203.4,162.5,203.4,164.3L203.4,164.3z M135.9,164.3v81.5c0,1.8,0.6,3.5,1.6,4.7
	c1,1.2,2.3,1.9,3.7,1.9h0c1.4,0,2.8-0.7,3.7-1.9c1-1.2,1.6-2.9,1.6-4.7v-81.5c0-1.8-0.6-3.5-1.6-4.7c-1-1.2-2.3-1.9-3.7-1.9h0
	c-1.4,0-2.8,0.7-3.7,1.9C136.5,160.8,135.9,162.5,135.9,164.3L135.9,164.3z M237.2,150.2v101.2c0,5.9-2.4,11.3-6.3,15.2
	c-3.9,3.9-9.3,6.3-15.2,6.3h-81.2c-5.9,0-11.3-2.4-15.2-6.3c-3.9-3.9-6.3-9.3-6.3-15.2V150.2c-2.4-0.2-4.5-1.3-6.1-2.9
	c-1.7-1.8-2.8-4.1-2.8-6.8v0c0-2.7,1.1-5.1,2.9-6.9l0,0c1.8-1.8,4.2-2.8,6.9-2.8h122.6c2.7,0,5.1,1.1,6.9,2.8l0,0l0,0
	c1.8,1.8,2.9,4.2,2.9,6.9v0c0,2.6-1.1,5-2.8,6.8C241.7,148.9,239.5,150,237.2,150.2L237.2,150.2z"/>
</svg>
