<?xml version="1.0" encoding="utf-8"?>
<!-- Generator: Adobe Illustrator 17.1.0, SVG Export Plug-In . SVG Version: 6.00 Build 0)  -->
<!DOCTYPE svg PUBLIC "-//W3C//DTD SVG 1.1//EN" "http://www.w3.org/Graphics/SVG/1.1/DTD/svg11.dtd">
<svg version="1.1" id="レイヤー_1" xmlns="http://www.w3.org/2000/svg" xmlns:xlink="http://www.w3.org/1999/xlink" x="0px"
	 y="0px" viewBox="0 0 350 350" enable-background="new 0 0 350 350" xml:space="preserve">
<g id="CloudDown">
	<path fill="#BADA9B" d="M350,175c0,96.6-78.4,175-175,175C78.3,350,0,271.6,0,175C0,78.4,78.3,0,175,0C271.6,0,350,78.4,350,175z"
		/>
	<path opacity="0.1" d="M338.1,238.3L206.3,108.2l-50.2,37.2L109.8,189l-16.3,26.8l-20.9,11l121.6,122.1
		C260.1,341.7,315,297.9,338.1,238.3z"/>
	<g>
		<g>
			<path fill="#FFFFFF" d="M259.3,182.7c1.4-11.9-10.8-24.2-21.3-17.3c-11.2-84.3-87.1-78.9-104.3-30.5c-12.3-4.5-32.9-12.8-44.8,29
				c-51.1,39.8-4.6,86.1,5.2,86.1c7.3,0,35.4,0,66.5,0H175l-37.3-50.2h23v-38.2h28.6v38.2h23L175,250h14.3c34.5,0,65.7,0,69.4,0
				C280.9,250,303.3,201.4,259.3,182.7z"/>
		</g>
	</g>
</g>
</svg>
