<?xml version="1.0" encoding="utf-8"?>
<!-- Generator: Adobe Illustrator 17.1.0, SVG Export Plug-In . SVG Version: 6.00 Build 0)  -->
<!DOCTYPE svg PUBLIC "-//W3C//DTD SVG 1.1//EN" "http://www.w3.org/Graphics/SVG/1.1/DTD/svg11.dtd">
<svg version="1.1" id="レイヤー_1" xmlns="http://www.w3.org/2000/svg" xmlns:xlink="http://www.w3.org/1999/xlink" x="0px"
	 y="0px" viewBox="0 0 350 350" enable-background="new 0 0 350 350" xml:space="preserve">
<g id="Mic_2_">
	<path fill="#CF4C4B" d="M350,175c0,96.7-78.4,175-175,175S0,271.7,0,175C0,78.4,78.4,0,175,0S350,78.4,350,175z"/>
</g>
<path fill="#873030" d="M208.1,93.6l134.1,133.8c-10.5,47.8-53.2,89.7-104.5,110.3l-142.7-140l89.8,35.4L208.1,93.6z"/>
<g>
	<path fill="#FFFFFF" d="M80.6,173.6c0-6,2.3-12,6.9-16.6c9.2-9.2,24-9.2,33.2,0l64.1,64.1l64.1-64.1c9.2-9.2,24-9.2,33.2,0
		s9.2,24,0,33.2l-80.7,80.7c-9.2,9.2-24,9.2-33.2,0l-80.7-80.7C82.8,185.6,80.6,179.6,80.6,173.6z"/>
	<path fill="#FFFFFF" d="M194.1,80.7c7.7,0,14,5.8,14,12.9v151.6c0,7.1-6.3,12.9-14,12.9h-18.7c-7.7,0-14-5.8-14-12.9V93.7
		c0-7.1,6.3-12.9,14-12.9L194.1,80.7L194.1,80.7z"/>
</g>
</svg>
