<?xml version="1.0" encoding="utf-8"?>
<!-- Generator: Adobe Illustrator 17.1.0, SVG Export Plug-In . SVG Version: 6.00 Build 0)  -->
<!DOCTYPE svg PUBLIC "-//W3C//DTD SVG 1.1//EN" "http://www.w3.org/Graphics/SVG/1.1/DTD/svg11.dtd">
<svg version="1.1" id="レイヤー_1" xmlns="http://www.w3.org/2000/svg" xmlns:xlink="http://www.w3.org/1999/xlink" x="0px"
	 y="0px" viewBox="0 0 350 350" enable-background="new 0 0 350 350" xml:space="preserve">
<path fill="#84CEA4" d="M350,175c0,96.7-78.4,175-175,175C78.4,350,0,271.7,0,175S78.4,0,175,0C271.6,0,350,78.3,350,175"/>
<path fill="#5F9977" d="M264.2,102.4l-47.5,45.2l-49,51.5l-22.9,30.6l-58.4,50.4l78.6,69.5c0,0,8.5,0.3,9.9,0.3
	c96,0,170.8-79.7,174.8-165.9"/>
<path fill="#FFFFFF" d="M231.9,147.8c-2.6,3.2-7.3,3.7-10.5,1.1l-34.8-28.1c-3.2-2.6-3.7-7.3-1.1-10.5l31-38.3
	c2.6-3.2,7.3-3.7,10.5-1.1l34.8,28.1c3.2,2.6,3.7,7.3,1.1,10.5L231.9,147.8z"/>
<path fill="#707272" d="M220.7,104.7c-1.1,1.3-2.6,1.9-3.5,1.2l-9.1-7.3c-0.8-0.7-0.6-2.3,0.4-3.7l12.9-16c1.1-1.3,2.6-1.9,3.5-1.2
	l9.1,7.3c0.8,0.7,0.6,2.3-0.4,3.7L220.7,104.7z"/>
<rect x="138.7" y="94.9" transform="matrix(-0.7774 -0.629 0.629 -0.7774 156.3382 398.4861)" fill="#FFFFFF" width="19.9" height="153.4"/>
<rect x="154.2" y="107.4" transform="matrix(-0.7774 -0.629 0.629 -0.7774 175.9343 430.3993)" fill="#FFFFFF" width="19.9" height="153.4"/>
<rect x="169.1" y="119.7" transform="matrix(-0.7774 -0.629 0.629 -0.7774 195.3194 462.0004)" fill="#FFFFFF" width="20.5" height="153.4"/>
<path fill="#FFFFFF" d="M87.1,266.8l5.7-39.8c0,0,1.8-1.8,2.3-1.7c0.6,0.1,4.2,0.9,4.4,1.1c0.2,0.2,1.4,0,2.9,1.3
	c1.6,1.3,0.9,0.1,2.1,2.2c1.2,2.1,1.6,2.8,1.6,3.3c0.1,0.5,1,3,1,3l-0.9,3.4l-15,30.7L87.1,266.8z"/>
<path fill="#FFFFFF" d="M121.7,252.3c0,0,1.1-3.4,1-4.7c-0.1-1.3-0.4-2.4-1.5-4.3c-1.1-1.9-1-3.8-2.7-4.1c-1.7-0.3-3.2-1.6-5.1-1.3
	c-1.9,0.3-3.8-0.1-4.9,0.2c-1.1,0.3-2.1,1.4-2.1,1.4l-15,30.7l3.8,2.9L121.7,252.3z"/>
<path fill="#FFFFFF" d="M137.5,263.2c0,0,2.5-1.4,1.1-4.3c-1.4-2.9-1.1-3-3.6-5c-2.5-2.1-1.9-2.1-3.5-2.4c-1.7-0.2-3.2-1.7-4.4-1.3
	c-1.2,0.4-5.5,2.1-5.5,2.1l-26.5,20.9l4.1,3.9L137.5,263.2z"/>
<path fill="#383A3A" d="M87.1,266.8l-1.4,9.1c0,0-1.9,7,5.6,4.2l7.9-3l-6.1-6.2L87.1,266.8z"/>
<polygon fill="#707272" points="235.5,143.6 188.9,106.1 196.1,97 242.7,134.8 "/>
<path fill="#FFFFFF" d="M92.7,225c0,0,15.5-4.8,15.4,11.5l0,1c0,0,16.4-5.8,15.6,12.6c0,0,17.1-5.8,15.4,12.5l-1.6,0.7
	c0,0-0.5-14.1-15.9-10.9c0,0,1.1-16.1-15.3-12.8c0,0,0.3-14.7-13.5-12.6L92.7,225z"/>
</svg>
