<?xml version="1.0" encoding="utf-8"?>
<!-- Generator: Adobe Illustrator 17.1.0, SVG Export Plug-In . SVG Version: 6.00 Build 0)  -->
<!DOCTYPE svg PUBLIC "-//W3C//DTD SVG 1.1//EN" "http://www.w3.org/Graphics/SVG/1.1/DTD/svg11.dtd">
<svg version="1.1" id="レイヤー_1" xmlns="http://www.w3.org/2000/svg" xmlns:xlink="http://www.w3.org/1999/xlink" x="0px"
	 y="0px" viewBox="0 0 350 350" enable-background="new 0 0 350 350" xml:space="preserve">
<path fill="#6AD3DB" d="M155.9,349.3c-1.4-0.1-2.9-0.3-4.3-0.5c-0.4-0.1-0.9-0.1-1.3-0.2c-0.8-0.1-1.6-0.2-2.3-0.4
	c-0.6-0.1-1.1-0.2-1.7-0.3c-2.9-0.5-5.8-1-8.7-1.7c-1.3-0.3-2.6-0.6-3.9-0.9c-0.4-0.1-0.8-0.2-1.2-0.3c-1-0.2-2-0.5-3-0.8
	c-1-0.3-2-0.6-3-0.8c-5.1-1.5-10.1-3.2-15-5.1c-1.9-0.7-3.8-1.5-5.7-2.3c-0.1-0.1-0.2-0.1-0.3-0.1c-7-3-13.8-6.5-20.3-10.4
	c-31.2-18.7-56.1-46.8-70.8-80.5c-9.9-22.7-15.1-47.8-14.5-74.2c0.4-17.3,3.4-34,8.5-49.7c0-0.1,0.1-0.2,0.1-0.2
	c0.7-2.3,1.5-4.6,2.4-6.8c1.9-5,4-10,6.3-14.8l0.1-0.3l2.8-5.4l0.2-0.4C50.3,37.2,109.8-0.9,177.3,0
	c81.9,1.1,150.3,58.4,168.1,135.2c0.3,1.2,0.5,2.4,0.8,3.5c0.1,0.6,0.2,1.2,0.4,1.7c0.4,2.2,0.9,4.4,1.2,6.6
	c0.2,1.4,0.4,2.8,0.6,4.1c0.2,1.5,0.4,3,0.5,4.5c0,0.4,0.1,0.7,0.1,1.1c0.1,0.5,0.1,1,0.2,1.6c0,0.4,0.1,0.8,0.1,1.2
	c0.1,1,0.2,2,0.2,3c0.2,2.5,0.3,5,0.4,7.6c0,1.3,0.1,2.6,0.1,3.9v1.1c0,0.7,0,1.3,0,2v0.2c0,1.2,0,2.4-0.1,3.6c0,0.2,0,0.4,0,0.6
	c0,0.1,0,0.2,0,0.3c0,0.4,0,0.8-0.1,1.2v0c-0.1,2.2-0.2,4.5-0.4,6.7c0,0.5-0.1,1-0.1,1.6c-0.1,0.6-0.1,1.1-0.2,1.7
	c0,0.4-0.1,0.8-0.1,1.2c-0.3,2.6-0.6,5.1-1,7.7c-0.1,0.8-0.2,1.5-0.4,2.3c-0.1,0.4-0.1,0.7-0.2,1.1c-0.2,0.9-0.3,1.9-0.5,2.8
	c0,0,0,0,0,0c-0.4,2.3-0.9,4.6-1.5,6.9c-0.4,1.9-0.9,3.8-1.4,5.6c-0.4,1.3-0.7,2.6-1.1,3.9c-1.1,3.7-2.3,7.3-3.6,10.8
	c-0.5,1.5-1.1,2.9-1.7,4.3c-0.1,0.3-0.3,0.7-0.4,1c-0.1,0.3-0.2,0.5-0.3,0.8c-5.4,13.2-12.4,25.6-20.7,37c-2.4,3.3-4.9,6.4-7.5,9.5
	c-19.9,23.7-46,42-75.9,52.5c0,0,0,0,0,0c-0.2,0.1-0.4,0.1-0.6,0.2c-0.5,0.2-0.9,0.3-1.4,0.5c-1.3,0.4-2.6,0.9-3.9,1.3c0,0,0,0,0,0
	c-0.8,0.3-1.7,0.5-2.5,0.8c-1.5,0.5-3.1,0.9-4.7,1.3c-1.2,0.3-2.3,0.6-3.5,0.9c-0.7,0.2-1.4,0.4-2.1,0.5c-0.5,0.1-1,0.2-1.5,0.3
	c-0.1,0-0.3,0.1-0.5,0.1c-0.6,0.2-1.3,0.3-2,0.4c-0.1,0-0.2,0-0.3,0.1c-1.1,0.2-2.2,0.4-3.3,0.6c-1.2,0.2-2.4,0.4-3.5,0.6
	c-0.1,0-0.1,0-0.2,0c-0.2,0-0.4,0.1-0.6,0.1c-0.2,0-0.4,0.1-0.5,0.1c-1.3,0.2-2.7,0.4-4,0.6c-4,0.5-7.9,0.9-12,1.2"/>
<path fill="#4D8D96" d="M213.2,346.3l-46.7-45.2l34.6-26.7L175.9,258l8.7-70l28.7-23.6l21-54.6l4.6-37.7l110.5,126.6
	c0,0-7.2,55.8-45.4,95.8S213.2,346.3,213.2,346.3z"/>
<g>
	<path fill="#FFFFFF" stroke="#FFFFFD" stroke-miterlimit="10" d="M238.8,72.6v131.5c0,2.3-1.9,4.2-4.2,4.2H117.1
		c-1.4,0-2.6-0.6-3.3-1.6c-0.6-0.7-0.9-1.6-0.9-2.6V45.8c0-2.3,1.9-4.2,4.2-4.2h90.7l16.7,16.8L238.8,72.6z"/>
	<rect x="129.3" y="57.4" fill="#C9BE98" width="91.5" height="5.5"/>
	<rect x="129.3" y="74.6" fill="#C9BE98" width="95.3" height="5.5"/>
	<rect x="129.3" y="90.8" fill="#C9BE98" width="95.3" height="5.5"/>
	<rect x="129.3" y="107.1" fill="#C9BE98" width="95.3" height="5.5"/>
	<rect x="129.3" y="124.3" fill="#C9BE98" width="95.3" height="5.5"/>
	<rect x="129.3" y="141.9" fill="#C9BE98" width="55.3" height="5.5"/>
	<path fill="#BFB48A" d="M238.8,72.2h-25.6c-2.7,0-4.8-2.2-4.8-4.8V41.7L238.8,72.2z"/>
</g>
<g>
	<path fill="#FFFFFF" d="M225,259.7l-41.5,41.5c-4.7,4.7-12.3,4.7-17.1,0L125,259.7c-4.7-4.7-4.7-12.3,0-17.1
		c4.7-4.7,12.3-4.7,17.1,0l32.9,32.9l32.9-32.9c4.7-4.7,12.3-4.7,17.1,0c2.4,2.4,3.5,5.4,3.5,8.5C228.5,254.2,227.4,257.3,225,259.7
		z"/>
	<path fill="#FFFFFF" d="M170.2,203.5h9.6c4,0,7.2,3,7.2,6.6v77.8c0,3.6-3.2,6.6-7.2,6.6h-9.6c-4,0-7.2-3-7.2-6.6V210
		C163,206.4,166.3,203.4,170.2,203.5L170.2,203.5z"/>
</g>
</svg>
