<?xml version="1.0" encoding="utf-8"?>
<!-- Generator: Adobe Illustrator 17.1.0, SVG Export Plug-In . SVG Version: 6.00 Build 0)  -->
<!DOCTYPE svg PUBLIC "-//W3C//DTD SVG 1.1//EN" "http://www.w3.org/Graphics/SVG/1.1/DTD/svg11.dtd">
<svg version="1.1" id="レイヤー_1" xmlns="http://www.w3.org/2000/svg" xmlns:xlink="http://www.w3.org/1999/xlink" x="0px"
	 y="0px" viewBox="108.5 108.5 350 350" enable-background="new 108.5 108.5 350 350" xml:space="preserve">
<g id="_x34_PersonConnect">
	<path fill="#6B7DD6" d="M458.5,283.5c0,96.6-78.4,175-175,175c-96.7,0-175-78.4-175-175c0-96.6,78.3-175,175-175
		C380.1,108.5,458.5,186.8,458.5,283.5z"/>
</g>
<path fill="none" stroke="#FFFFFF" stroke-width="15" stroke-linecap="round" stroke-miterlimit="10" d="M322.5,255.7"/>
<path fill="none" stroke="#FFFFFF" stroke-width="15" stroke-linecap="round" stroke-miterlimit="10" d="M275.7,216.5"/>
<path fill="none" stroke="#FFFFFF" stroke-width="15" stroke-linecap="round" stroke-miterlimit="10" d="M322.5,289"/>
<path fill="none" stroke="#FFFFFF" stroke-width="15" stroke-linecap="round" stroke-miterlimit="10" d="M275.7,328.2"/>
<path fill="#45589B" d="M315.9,455.3L200.4,338.9l-20.8-90.8l30.8-43.6l38,3l16.6,1.4l35.4-1.6l59.6,60.6l6.3,4l25.4,4l36.4-15.4
	l29.6,28.5c0,0,1.4,57-43.2,110.3C379,441.9,315.9,455.3,315.9,455.3z"/>
<g>
	<path fill="#FFFFFF" d="M431.4,277c0,4.2-3.4,7.6-7.6,7.6h-89.5c-4.2,0-7.6-3.4-7.6-7.6v-10.2c0-4.2,3.4-7.6,7.6-7.6h89.5
		c4.2,0,7.6,3.4,7.6,7.6V277z"/>
	<path fill="#FFFFFF" d="M384.1,219.5c4.2,0,7.6,3.4,7.6,7.6v89.5c0,4.2-3.4,7.6-7.6,7.6h-10.2c-4.2,0-7.6-3.4-7.6-7.6v-89.5
		c0-4.2,3.4-7.6,7.6-7.6H384.1z"/>
</g>
<g>
	<path fill="#FCFCFC" d="M313.1,283.2v31.4c0,4.2-0.4,7.5-1.2,10c-0.8,2.5-2.3,4.7-4.5,6.8c-2.2,2-5,3.9-8.4,5.8
		c-9.9,5.4-19.4,9.3-28.6,11.7c-9.2,2.5-19.1,3.7-29.9,3.7c-12.6,0-24.1-1.9-34.4-5.8c-10.4-3.9-19.2-9.5-26.5-16.9
		c-7.3-7.4-12.9-16.3-16.8-26.8c-3.9-10.5-5.9-22.2-5.9-35.2c0-12.7,1.9-24.4,5.7-35c3.8-10.6,9.4-19.6,16.8-26.9
		c7.4-7.4,16.4-13,26.9-16.9c10.6-3.9,22.6-5.9,36-5.9c11,0,20.8,1.5,29.3,4.4c8.5,2.9,15.4,6.6,20.7,11.1c5.3,4.5,9.3,9.2,12,14.2
		c2.7,5,4,9.4,4,13.3c0,4.2-1.5,7.7-4.6,10.7c-3.1,2.9-6.8,4.4-11.1,4.4c-2.4,0-4.7-0.6-6.9-1.7c-2.2-1.1-4-2.7-5.5-4.7
		c-4.1-6.4-7.6-11.2-10.4-14.5c-2.8-3.3-6.6-6-11.5-8.3c-4.8-2.2-10.9-3.4-18.4-3.4c-7.7,0-14.5,1.3-20.6,4
		c-6,2.6-11.2,6.5-15.5,11.5c-4.3,5-7.6,11.2-9.8,18.5c-2.3,7.3-3.4,15.4-3.4,24.2c0,19.2,4.4,34,13.2,44.4
		c8.8,10.4,21.1,15.5,36.9,15.5c7.7,0,14.9-1,21.6-3c6.7-2,13.6-4.9,20.5-8.6v-26.6H257c-6.2,0-10.9-0.9-14-2.8
		c-3.2-1.9-4.7-5-4.7-9.5c0-3.6,1.3-6.7,4-9.1c2.6-2.4,6.2-3.6,10.8-3.6h37.7c4.6,0,8.5,0.4,11.7,1.2c3.2,0.8,5.8,2.6,7.8,5.5
		C312.1,273.3,313.1,277.6,313.1,283.2z"/>
</g>
</svg>
