<?xml version="1.0" encoding="utf-8"?>
<!-- Generator: Adobe Illustrator 17.1.0, SVG Export Plug-In . SVG Version: 6.00 Build 0)  -->
<!DOCTYPE svg PUBLIC "-//W3C//DTD SVG 1.1//EN" "http://www.w3.org/Graphics/SVG/1.1/DTD/svg11.dtd">
<svg version="1.1" id="レイヤー_1" xmlns="http://www.w3.org/2000/svg" xmlns:xlink="http://www.w3.org/1999/xlink" x="0px"
	 y="0px" viewBox="0 0 350 350" enable-background="new 0 0 350 350" xml:space="preserve">
<g id="_x35_PersonGroup">
	<circle fill="#75BBC9" cx="175" cy="175" r="174.7"/>
	<g>
		<path opacity="0.1" d="M114.3,221.5c1.5,0.5,3,1.2,4.5,1.9l17.8-17.8l-9.2-9.1c0,0.3,0,0.5,0,0.8
			C127.5,207.4,122.2,216.3,114.3,221.5z"/>
		<path opacity="0.1" d="M204.2,41.9c0.2,1.2,0.3,2.4,0.3,3.6c0,10.1-5.2,19.1-13.2,24.2c18,6.3,33.9,25.3,40,57
			c-14.7,0-33.3,0-51.7,0v43.9l53.4,53.4c1.3-0.7,2.7-1.3,4-1.9c-8.7-5-14.5-14.3-14.5-25c0-15.9,12.9-28.8,28.8-28.8
			c14.3,0,26.1,10.4,28.4,24.1c0.3,1.5,0.4,3.1,0.4,4.7c0,10.1-5.2,19.1-13.2,24.2c18,6.3,33.9,25.3,40,57c-30.2,0-76.6,0-104.2,0
			c-2.5,0-4.9,0-7,0c6-24,17.3-40.7,30.4-50.2l-50.6-50.6l-49.8,49.8c13.1,9.3,23.8,26.2,28.5,51c-27.3,0-67.8,0-95.8,0l63.7,63.1
			c16.6,5.3,34.3,8.1,52.7,8.1c92.9,0,168.9-72.5,174.4-164.1L204.2,41.9z"/>
		<path opacity="0.1" d="M133.8,126.8l38,37.6v-37.6C158.1,126.8,144.9,126.8,133.8,126.8z"/>
		<path fill="#FFFFFF" d="M125.7,227.5l49.8-49.8l50.6,50.6c-13.1,9.5-24.4,26.2-30.4,50.2c2.2,0,4.5,0,7,0c27.6,0,74,0,104.2,0
			c-6.1-31.8-21.9-50.7-40-57c7.9-5.1,13.2-14,13.2-24.2c0-1.6-0.2-3.2-0.4-4.7c-2.3-13.6-14.1-24.1-28.4-24.1
			c-15.9,0-28.8,12.9-28.8,28.8c0,10.7,5.8,20,14.5,25c-1.4,0.5-2.7,1.2-4,1.9l-53.4-53.4v-43.9c18.4,0,37,0,51.7,0
			c-6.1-31.8-21.9-50.7-40-57c7.9-5.1,13.2-14,13.2-24.2c0-1.2-0.1-2.5-0.3-3.6c0-0.4-0.1-0.7-0.1-1.1
			c-2.3-13.6-14.1-24.1-28.4-24.1c-15.9,0-28.8,12.9-28.8,28.8c0,10.7,5.8,20,14.5,25c-17.6,7-33.6,25.8-41.3,56.2c2.2,0,4.5,0,7,0
			c2.1,0,4.4,0,6.7,0c11.1,0,24.3,0,38,0v37.6v6l-35.1,35.1l-17.8,17.8c-1.5-0.7-3-1.4-4.5-1.9c7.9-5.1,13.2-14,13.2-24.2
			c0-0.3,0-0.5,0-0.8c0-1.3-0.2-2.6-0.4-3.9c-2.3-13.6-14.1-24.1-28.4-24.1c-15.9,0-28.8,12.9-28.8,28.8c0,10.7,5.8,20,14.5,25
			c-17.6,7-33.6,25.8-41.3,56.2c2.2,0,4.5,0,7,0c2.6,0,5.5,0,8.5,0c27.9,0,68.4,0,95.8,0C149.5,253.7,138.8,236.7,125.7,227.5z"/>
	</g>
</g>
</svg>
