<?xml version="1.0" encoding="utf-8"?>
<!-- Generator: Adobe Illustrator 17.1.0, SVG Export Plug-In . SVG Version: 6.00 Build 0)  -->
<!DOCTYPE svg PUBLIC "-//W3C//DTD SVG 1.1//EN" "http://www.w3.org/Graphics/SVG/1.1/DTD/svg11.dtd">
<svg version="1.1" id="レイヤー_1" xmlns="http://www.w3.org/2000/svg" xmlns:xlink="http://www.w3.org/1999/xlink" x="0px"
	 y="0px" viewBox="0 0 350 350" enable-background="new 0 0 350 350" xml:space="preserve">
<g id="_x31_Person1">
	<circle fill="#47B24A" cx="175" cy="175" r="175"/>
	<g>
		<path fill="#2C823A" d="M218.4,127.7c0.4,2.4,0.6,4.8,0.6,7.2c0,15.5-8,29.1-20.1,37c27.6,9.7,51.8,38.7,61.1,87.2
			c-46.2,0-117.1,0-159.4,0l91,90.1c64.9-6.1,119.5-47.7,144.2-105.2L218.4,127.7z"/>
		<path fill="#FFFFFF" d="M198.9,171.9c12.1-7.8,20.1-21.5,20.1-37c0-2.5-0.3-4.9-0.6-7.2c-3.5-20.9-21.5-36.8-43.4-36.8
			c-24.3,0-44,19.7-44,44c0,16.4,8.9,30.6,22.2,38.2c-27,10.8-51.5,39.5-63.2,86c3.3,0,6.9,0,10.7,0c42.3,0,113.2,0,159.4,0
			C250.7,210.6,226.5,181.6,198.9,171.9z"/>
	</g>
</g>
</svg>
