<?xml version="1.0" encoding="utf-8"?>
<!-- Generator: Adobe Illustrator 17.1.0, SVG Export Plug-In . SVG Version: 6.00 Build 0)  -->
<!DOCTYPE svg PUBLIC "-//W3C//DTD SVG 1.1//EN" "http://www.w3.org/Graphics/SVG/1.1/DTD/svg11.dtd">
<svg version="1.1" id="レイヤー_1" xmlns="http://www.w3.org/2000/svg" xmlns:xlink="http://www.w3.org/1999/xlink" x="0px"
	 y="0px" viewBox="0 0 350 350" enable-background="new 0 0 350 350" xml:space="preserve">
<path fill-rule="evenodd" clip-rule="evenodd" fill="#D66368" d="M175.1,0h-0.2C78.3,0.1,0,78.4,0,175c0,96.6,78.4,175,175,175
	c96.6,0,175-78.4,175-175C350,78.4,271.7,0.1,175.1,0L175.1,0z"/>
<path fill-rule="evenodd" clip-rule="evenodd" fill="#9F484E" d="M223.4,238.5l10-81l38.2-71.9l78.2,95.6
	c0,76.4-60,143.8-122.3,160.7L58.5,179.3l76.9-15.3l17.4,15.3l3.1,62.6L223.4,238.5z"/>
<g>
	<path fill="#FFFFFF" d="M267,249.5H155.8c-4.2,0-7.6-3.4-7.6-7.6V89.4c0-4.2,3.4-7.6,7.6-7.6H267c4.2,0,7.6,3.4,7.6,7.6v152.4
		C274.7,246.1,271.2,249.5,267,249.5z M163.5,234.2h95.9V97.1h-95.9V234.2z"/>
	<g>
		<polygon fill-rule="evenodd" clip-rule="evenodd" fill="#FFFFFF" points="267,241.9 217.9,280.5 217.9,128.1 267,89.4 		"/>
		<path fill="#FFFFFF" d="M217.9,288.2c-1.1,0-2.3-0.3-3.3-0.8c-2.6-1.3-4.3-3.9-4.3-6.9V128.1c0-2.3,1.1-4.6,2.9-6l49.1-38.6
			c2.3-1.8,5.4-2.1,8.1-0.9c2.6,1.3,4.3,3.9,4.3,6.9v152.4c0,2.3-1.1,4.6-2.9,6l-49.1,38.6C221.2,287.6,219.6,288.2,217.9,288.2z
			 M225.5,131.8v133l33.8-26.6v-133L225.5,131.8z"/>
	</g>
</g>
<g>
	<path fill="#FFFFFF" d="M92,215.6c-2.4,0-4.9-0.9-6.8-2.8l-37.7-37.7c-3.7-3.7-3.7-9.8,0-13.5l37.7-37.7c3.7-3.7,9.8-3.7,13.5,0
		c3.7,3.7,3.7,9.8,0,13.5l-30.9,30.9l30.9,30.9c3.7,3.7,3.7,9.8,0,13.5C96.9,214.7,94.4,215.6,92,215.6z"/>
	<path fill="#FFFFFF" d="M135.3,172.8c0,3.6-2.7,6.5-6,6.5H58.5c-3.3,0-6-2.9-6-6.5V164c0-3.6,2.7-6.5,6-6.5h70.8c3.3,0,6,2.9,6,6.5
		V172.8z"/>
</g>
</svg>
