<?xml version="1.0" encoding="utf-8"?>
<!-- Generator: Adobe Illustrator 17.1.0, SVG Export Plug-In . SVG Version: 6.00 Build 0)  -->
<!DOCTYPE svg PUBLIC "-//W3C//DTD SVG 1.1//EN" "http://www.w3.org/Graphics/SVG/1.1/DTD/svg11.dtd">
<svg version="1.1" id="レイヤー_1" xmlns="http://www.w3.org/2000/svg" xmlns:xlink="http://www.w3.org/1999/xlink" x="0px"
	 y="0px" viewBox="0 0 350 350" enable-background="new 0 0 350 350" xml:space="preserve">
<g id="Comment">
	<path fill="#3ADD6C" d="M350,175c0,96.7-78.4,175-175,175C78.3,350,0,271.7,0,175C0,78.4,78.3,0,175,0C271.6,0,350,78.4,350,175z"
		/>
	<g>
		<path fill="#37824C" d="M272.5,112.1c1.2,3.4,2,7.1,2,10.9L108,123c0,17.6,0,28,0,52l60,29c-16.6,19.3-32.8,39-42,51
			c-1.8,2.3-5.9,17.8-6.7,18.8l74.2,75.2c83.4-8.8,149.2-76.1,156-160.1L272.5,112.1z"/>
		<path fill="#FFFFFF" d="M113.2,281.7c13.6-17.4,36-45.9,53.2-65.6l2.1-2.3h86.3c13.8,0,25.1-11.3,25.1-25.1v-72.7
			c0-13.8-11.3-25.1-25.1-25.1H106.6c-13.8,0-25.1,11.3-25.1,25.1v72.7c0,13.8,11.3,25.1,25.1,25.1h6.6L113.2,281.7L113.2,281.7
			L113.2,281.7z M235.9,138.8c7.4,0,13.6,6.1,13.6,13.6s-6.1,13.6-13.6,13.6s-13.6-6.1-13.6-13.6
			C222.3,144.8,228.3,138.8,235.9,138.8z M180.7,138.8c7.4,0,13.6,6.1,13.6,13.6s-6.1,13.6-13.6,13.6s-13.6-6.1-13.6-13.6
			C167.1,144.8,173.1,138.8,180.7,138.8z M127,138.8c7.4,0,13.6,6.1,13.6,13.6s-6.1,13.6-13.6,13.6s-13.6-6.1-13.6-13.6
			C113.5,144.8,119.6,138.8,127,138.8z"/>
	</g>
</g>
</svg>
