<?xml version="1.0" encoding="utf-8"?>
<!-- Generator: Adobe Illustrator 17.1.0, SVG Export Plug-In . SVG Version: 6.00 Build 0)  -->
<!DOCTYPE svg PUBLIC "-//W3C//DTD SVG 1.1//EN" "http://www.w3.org/Graphics/SVG/1.1/DTD/svg11.dtd">
<svg version="1.1" id="レイヤー_1" xmlns="http://www.w3.org/2000/svg" xmlns:xlink="http://www.w3.org/1999/xlink" x="0px"
	 y="0px" viewBox="108.5 108.5 350 350" enable-background="new 108.5 108.5 350 350" xml:space="preserve">
<g id="Mic_1_">
	<path fill="#CF4C4B" d="M458.5,283.5c0,96.7-78.4,175-175,175c-96.6,0-175-78.3-175-175c0-96.6,78.4-175,175-175
		C380.1,108.5,458.5,186.8,458.5,283.5z"/>
</g>
<path fill-rule="evenodd" clip-rule="evenodd" fill="#883334" d="M399.1,259.1l55.7,57.5c-9.5,59.6-60.6,123.5-138.6,138.8
	L168.5,310.7l56.1-7.4"/>
<path fill="#FFFFFF" d="M402.3,295c0,9.6-7.8,17.3-17.3,17.3H182c-9.6,0-17.3-7.8-17.3-17.3v-23.1c0-9.6,7.8-17.3,17.3-17.3h203
	c9.6,0,17.3,7.8,17.3,17.3V295z"/>
</svg>
