<?xml version="1.0" encoding="utf-8"?>
<!-- Generator: Adobe Illustrator 17.1.0, SVG Export Plug-In . SVG Version: 6.00 Build 0)  -->
<!DOCTYPE svg PUBLIC "-//W3C//DTD SVG 1.1//EN" "http://www.w3.org/Graphics/SVG/1.1/DTD/svg11.dtd">
<svg version="1.1" id="レイヤー_1" xmlns="http://www.w3.org/2000/svg" xmlns:xlink="http://www.w3.org/1999/xlink" x="0px"
	 y="0px" viewBox="123.3 0 595.3 595.3" enable-background="new 123.3 0 595.3 595.3" xml:space="preserve">
<g>
	
		<image overflow="visible" opacity="0.75" width="601" height="601" xlink:href="2DBE1EFE.png"  transform="matrix(1 0 0 1 125 2.28)">
	</image>
	<g>
		<g>
			<g id="Mic_10_">
				<path fill="#CF4C4B" d="M705.9,297.6c0,157.5-127.7,285-285,285s-285-127.5-285-285c0-157.3,127.7-285,285-285
					S705.9,140.3,705.9,297.6z"/>
			</g>
			<path fill="#873030" d="M450.7,141.8l242.3,241c-17.1,77.8-90.8,157.1-190.8,188L282,335.3l219.7-19.1L450.7,141.8z"/>
			<g>
				<path fill="#FFFFFF" d="M427.6,474.2c-9.8,0-19.5-3.7-27-11.2c-15-15-15-39.1,0-54.1L505,304.5L400.6,200.1
					c-15-15-15-39.1,0-54.1s39.1-15,54.1,0l131.4,131.4c15,15,15,39.1,0,54.1L454.7,462.9C447.2,470.4,437.4,474.2,427.6,474.2z"/>
				<path fill="#FFFFFF" d="M276.3,289.3c0-12.5,9.4-22.8,21-22.8h246.9c11.6,0,21,10.3,21,22.8v30.5c0,12.5-9.4,22.8-21,22.8H297.5
					c-11.6,0-21-10.3-21-22.8v-30.5H276.3z"/>
			</g>
		</g>
	</g>
</g>
</svg>
