<?xml version="1.0" encoding="utf-8"?>
<!-- Generator: Adobe Illustrator 17.1.0, SVG Export Plug-In . SVG Version: 6.00 Build 0)  -->
<!DOCTYPE svg PUBLIC "-//W3C//DTD SVG 1.1//EN" "http://www.w3.org/Graphics/SVG/1.1/DTD/svg11.dtd">
<svg version="1.1" id="レイヤー_1" xmlns="http://www.w3.org/2000/svg" xmlns:xlink="http://www.w3.org/1999/xlink" x="0px"
	 y="0px" viewBox="0 0 566.9 566.9" enable-background="new 0 0 566.9 566.9" xml:space="preserve">
<g id="Disket_1_">
	<path fill="#E85BD4" d="M566.9,283.5c0,156.6-127,283.5-283.5,283.5C126.8,566.9,0,440.1,0,283.5C0,127,126.8,0,283.5,0
		C439.9,0,566.9,127,566.9,283.5z"/>
	<g>
		<path fill="#C63EBA" d="M431,165.2v270.7c0,3.1-2.4,5.5-5.5,5.5H155l125.4,125.4c1,0,1.9,0,2.9,0c150.8,0,274.1-117.8,283-266.3
			L431,165.2z"/>
		<path opacity="0.1" enable-background="new    " d="M177.7,170.9c0,28.3-0.6,51.3,22.4,51.3s23-23,23-51.3c0-6.8,0-13.3-0.3-19.3
			L209,137.7v69.7h-17.7v-35l-13.4-13.4C177.7,162.6,177.7,166.7,177.7,170.9z"/>
		<rect x="154.4" y="238.6" fill="#C63EBA" width="258.2" height="184.3"/>
		<path opacity="0.1" enable-background="new    " d="M366.6,222.2c23,0,23-23,23-51.3c0-7.6,0-14.7-0.5-21.2l-13.4-13.4v71.1H358
			v-35l-13.6-13.6c0,3.9,0,7.9,0,12.1C344.4,199.2,343.6,222.2,366.6,222.2z"/>
		<path fill="#FFFFFF" d="M431,435.9V165.2v-13.3c0-3.1-2.4-5.5-5.5-5.5h-36.4c0.2,1,0.2,2.1,0.2,3.2c0.5,6.5,0.5,13.6,0.5,21.2
			c0,28.3,0,51.3-23,51.3s-22.4-23-22.4-51.3c0-4.2,0-8.3,0-12.1c0-4.4,0.2-8.4,0.5-12.3H222.4c0.2,1.6,0.3,3.4,0.3,5.2
			c0.3,6,0.3,12.5,0.3,19.3c0,28.3,0,51.3-23,51.3s-22.4-23-22.4-51.3c0-4.2,0-8.1,0-12c0-4.4,0.2-8.6,0.5-12.5h-36.8
			c-3.1,0-5.5,2.4-5.5,5.5v284c0,3.1,2.4,5.5,5.5,5.5H155h270.3C428.4,441.4,431,439,431,435.9z M412.6,422.9H154.4V238.6h258.2
			V422.9z"/>
		<polygon fill="#FFFFFF" points="209,207.3 209,137.7 209,125.5 191.3,125.5 191.3,172.3 191.3,207.3 		"/>
		<polygon fill="#FFFFFF" points="375.8,207.3 375.8,136.2 375.8,125.5 358,125.5 358,172.3 358,207.3 		"/>
	</g>
</g>
</svg>
