<?xml version="1.0" encoding="utf-8"?>
<!-- Generator: Adobe Illustrator 17.1.0, SVG Export Plug-In . SVG Version: 6.00 Build 0)  -->
<!DOCTYPE svg PUBLIC "-//W3C//DTD SVG 1.1//EN" "http://www.w3.org/Graphics/SVG/1.1/DTD/svg11.dtd">
<svg version="1.1" id="レイヤー_1" xmlns="http://www.w3.org/2000/svg" xmlns:xlink="http://www.w3.org/1999/xlink" x="0px"
	 y="0px" viewBox="0 0 350 350" enable-background="new 0 0 350 350" xml:space="preserve">
<g>
	<path fill="#70A6A9" d="M175,350c96.4,0,175-78.6,175-175S271.4,0,175,0S0,78.6,0,175S78.6,350,175,350z"/>
	<path fill="#5795A3" d="M143.6,159.4l-6.2-6.2l39.7-50.4l-17.4-17.4l31.1-31.6l155.7,155.5c-16.1,80-87,140.6-171.6,140.6
		c-7,0-13.9-0.4-20.7-1.2L71,265.5l42-22.7l-26.3-26.3l11.4-27.4h15.2l-3.6-3.6l19.8-21v-5.1H143.6z"/>
	<path fill="#FFFFFF" d="M175,46.8c12.3,0,22.3,10,22.3,22.3s-10,22.3-22.3,22.3s-22.3-10-22.3-22.3S162.7,46.8,175,46.8L175,46.8z
		 M179.3,167.6c0-2.4-1.9-4.3-4.3-4.3c-2.4,0-4.3,1.9-4.3,4.3v29.5c0,2.4,1.9,4.3,4.3,4.3c2.4,0,4.3-1.9,4.3-4.3V167.6L179.3,167.6z
		 M223.6,160.8c-1.6-1.8-4.3-1.9-6.1-0.3c-1.8,1.6-1.9,4.3-0.3,6.1l16.9,18.8c1.6,1.8,4.3,1.9,6.1,0.3c1.8-1.6,1.9-4.3,0.3-6.1
		L223.6,160.8L223.6,160.8z M132.8,166.6c1.6-1.8,1.4-4.5-0.3-6.1c-1.8-1.6-4.5-1.4-6.1,0.3l-16.9,18.8c-1.6,1.8-1.4,4.5,0.3,6.1
		c1.8,1.6,4.5,1.4,6.1-0.3L132.8,166.6L132.8,166.6z M252.1,189.1c8.8,0,15.9,7.1,15.9,15.9c0,8.8-7.1,15.9-15.9,15.9
		c-8.8,0-15.9-7.1-15.9-15.9C236.2,196.3,243.3,189.1,252.1,189.1L252.1,189.1z M278.6,246.3l1.8,15c0.4,3-2.5,5.4-5.4,5.4h-45.5
		c-3,0-5.8-2.5-5.4-5.4l1.8-15c1.5-10.6,12.8-18.7,26.4-18.7c7.1,0,13.5,2.2,18.2,5.7C274.8,236.6,277.8,241.1,278.6,246.3
		L278.6,246.3z M175,208.4c8.8,0,15.9,7.1,15.9,15.9c0,8.8-7.1,15.9-15.9,15.9c-8.8,0-15.9-7.1-15.9-15.9
		C159.1,215.6,166.2,208.4,175,208.4L175,208.4z M201.4,265.5l1.8,15c0.4,3-2.5,5.4-5.4,5.4h-45.5c-3,0-5.8-2.5-5.4-5.4l1.8-15
		c1.5-10.6,12.8-18.7,26.4-18.7c7.1,0,13.5,2.2,18.2,5.7C197.7,255.9,200.7,260.4,201.4,265.5L201.4,265.5z M97.9,189.1
		c8.8,0,15.9,7.1,15.9,15.9c0,8.8-7.1,15.9-15.9,15.9S82,213.8,82,205C81.9,196.3,89.1,189.1,97.9,189.1L97.9,189.1z M212,126.8
		l2.5,21.1c0.5,4.2-3.4,7.6-7.6,7.6h-63.8c-4.2,0-8.1-3.5-7.6-7.6l2.5-21.1c2.2-14.8,17.9-26.2,37-26.2c9.9,0,18.9,3,25.5,8
		C206.8,113.3,211,119.6,212,126.8L212,126.8z M124.3,246.3l1.8,15c0.4,3-2.5,5.4-5.4,5.4H75.1c-3,0-5.8-2.5-5.4-5.4l1.8-15
		c1.5-10.6,12.8-18.7,26.4-18.7c7.1,0,13.5,2.2,18.2,5.7C120.5,236.6,123.5,241.1,124.3,246.3z"/>
</g>
</svg>
