<?xml version="1.0" encoding="utf-8"?>
<!-- Generator: Adobe Illustrator 17.1.0, SVG Export Plug-In . SVG Version: 6.00 Build 0)  -->
<!DOCTYPE svg PUBLIC "-//W3C//DTD SVG 1.1//EN" "http://www.w3.org/Graphics/SVG/1.1/DTD/svg11.dtd">
<svg version="1.1" id="レイヤー_1" xmlns="http://www.w3.org/2000/svg" xmlns:xlink="http://www.w3.org/1999/xlink" x="0px"
	 y="0px" viewBox="0 0 350 350" enable-background="new 0 0 350 350" xml:space="preserve">
<path fill="#B43E4C" d="M148.5,280.4"/>
<path fill-rule="evenodd" clip-rule="evenodd" fill="#4AB46D" d="M175.1,350h-0.2C78.3,349.9,0,271.6,0,175C0,78.4,78.4,0,175,0
	s175,78.4,175,175C350,271.6,271.7,349.9,175.1,350L175.1,350z"/>
<path fill-rule="evenodd" clip-rule="evenodd" fill="#28A15C" d="M210.8,346.3L68,203.5L91.9,142l21,21l60.5-60.5l36.8,36.8l4-4
	l35.8,35.8l-14.8-54.7l45.5,45.5l-23.9-63.7l92.5,92.5C342.5,267.9,285.3,330.8,210.8,346.3L210.8,346.3z"/>
<path fill-rule="evenodd" clip-rule="evenodd" fill="#FFFFFF" d="M180.3,195.2v39c0,2.2-0.7,4.4-1.8,6.5c-1.3,2.6-3.2,4.9-5.1,6.7
	c-2.1,2.1-5.4,4.7-8.9,6c-2.6,1-5.3,1.3-7.7,0.3h0c-0.3-0.1-0.6-0.3-0.9-0.4v0c-0.3-0.2-0.5-0.4-0.8-0.6v0L103.1,209v0
	c-0.3-0.2-0.5-0.5-0.6-0.8c-0.1-0.3-0.2-0.7-0.2-1v-64.3c0-0.4,0.1-0.7,0.2-1c0.1-0.3,0.4-0.6,0.6-0.8v0l0,0l52.1-43.8
	c2.3-1.9,5.2-2,8.1-1.1c3.9,1.2,7.9,4.2,10.1,6.4c1.8,1.8,3.7,4.2,5.1,6.7c1.1,2.1,1.8,4.3,1.8,6.5v39V195.2z M240.9,102.1
	c-2.9-2.6-3-7.1-0.4-10c2.6-2.9,7.1-3,10-0.4c11.4,10.5,20.7,23.4,27.1,37.9c6.1,13.9,9.5,29.3,9.5,45.4c0,16.1-3.4,31.5-9.5,45.4
	c-6.4,14.5-15.6,27.3-27.1,37.9c-2.9,2.6-7.3,2.4-10-0.4c-2.6-2.9-2.4-7.3,0.4-10c10-9.2,18.2-20.5,23.7-33.1
	c5.3-12.1,8.3-25.6,8.3-39.8c0-14.2-3-27.6-8.3-39.8C259,122.6,250.9,111.3,240.9,102.1L240.9,102.1z M230.3,238.4
	c-2.9,2.6-7.4,2.3-10-0.6c-2.6-2.9-2.3-7.4,0.6-10c7.4-6.6,13.4-14.8,17.5-23.9c3.9-8.8,6.1-18.6,6.1-28.9c0-10.3-2.2-20.1-6.1-28.9
	c-4.1-9.1-10.1-17.3-17.5-23.9c-2.9-2.6-3.2-7-0.6-10c2.6-2.9,7-3.2,10-0.6c8.9,7.9,16.1,17.7,21,28.7c4.8,10.6,7.4,22.4,7.4,34.7
	c0,12.3-2.6,24.1-7.4,34.7C246.4,220.7,239.2,230.5,230.3,238.4L230.3,238.4z M210.1,218.5c-3,2.5-7.4,2.1-9.9-0.9
	c-2.5-3-2.1-7.4,0.9-9.9c4.8-4,8.6-9,11.3-14.7c2.5-5.4,4-11.5,4-18c0-6.5-1.4-12.6-4-18c-2.7-5.7-6.5-10.7-11.3-14.7
	c-3-2.5-3.4-6.9-0.9-9.9c2.5-3,6.9-3.4,9.9-0.9c6.3,5.3,11.5,11.9,15.1,19.5c3.4,7.3,5.3,15.5,5.3,24c0,8.5-1.9,16.7-5.3,24
	C221.6,206.5,216.5,213.2,210.1,218.5L210.1,218.5z M90.2,208.9H79.6c-4.8,0-8.8-2.2-11.6-5.4c-3.2-3.6-5-8.5-5-13.4v-29.9
	c0-4.9,1.8-9.8,5-13.4c2.9-3.3,6.9-5.4,11.6-5.4h10.6c0.7,0,1.3,0.3,1.7,0.7c0.4,0.4,0.7,1,0.7,1.7v62.8c0,0.7-0.3,1.3-0.7,1.7l0,0
	C91.4,208.6,90.8,208.9,90.2,208.9L90.2,208.9z"/>
</svg>
