<?xml version="1.0" encoding="utf-8"?>
<!-- Generator: Adobe Illustrator 17.1.0, SVG Export Plug-In . SVG Version: 6.00 Build 0)  -->
<!DOCTYPE svg PUBLIC "-//W3C//DTD SVG 1.1//EN" "http://www.w3.org/Graphics/SVG/1.1/DTD/svg11.dtd">
<svg version="1.1" id="レイヤー_1" xmlns="http://www.w3.org/2000/svg" xmlns:xlink="http://www.w3.org/1999/xlink" x="0px"
	 y="0px" viewBox="123.3 0 595.3 595.3" enable-background="new 123.3 0 595.3 595.3" xml:space="preserve">
<g>
	
		<image overflow="visible" opacity="0.75" width="601" height="601" xlink:href="18F8472F.png"  transform="matrix(1 0 0 1 125 2.28)">
	</image>
	<g>
		<g>
			<path fill="#188AB4" d="M421.1,582.6h-0.3c-157.3-0.2-284.8-127.7-284.8-285s127.7-285,285-285s285,127.7,285,285
				S578.4,582.5,421.1,582.6L421.1,582.6z"/>
			<path fill="#B43E4C" d="M420.9,297.6"/>
			<path fill="#0D677E" d="M420.9,297.6"/>
			<path fill="#0D677E" d="M449,134.8l245.6,243.3c-16.8,76.1-90.9,155.4-172.6,186.1L285.4,329.9l44.1,7"/>
			<g>
				<path fill="#FFFFFF" d="M429.7,458.5c-9.6,0-19.1-3.6-26.4-10.9L274.9,319.1c-14.7-14.7-14.7-38.3,0-52.8l128.5-128.5
					c14.7-14.7,38.3-14.7,52.8,0c14.7,14.7,14.7,38.3,0,52.8L354.2,292.8l102.1,102.1c14.7,14.7,14.7,38.3,0,52.8
					C449,454.8,439.3,458.5,429.7,458.5z"/>
				<path fill="#FFFFFF" d="M577.6,307.6c0,12.4-9.3,22.3-20.5,22.3H315.6c-11.4,0-20.5-9.9-20.5-22.3v-29.8
					c0-12.4,9.3-22.3,20.5-22.3h241.4c11.4,0,20.5,9.9,20.5,22.3v29.8H577.6z"/>
			</g>
		</g>
	</g>
</g>
</svg>
