<?xml version="1.0" encoding="utf-8"?>
<!-- Generator: Adobe Illustrator 17.1.0, SVG Export Plug-In . SVG Version: 6.00 Build 0)  -->
<!DOCTYPE svg PUBLIC "-//W3C//DTD SVG 1.1//EN" "http://www.w3.org/Graphics/SVG/1.1/DTD/svg11.dtd">
<svg version="1.1" id="レイヤー_1" xmlns="http://www.w3.org/2000/svg" xmlns:xlink="http://www.w3.org/1999/xlink" x="0px"
	 y="0px" viewBox="0 0 350 350" enable-background="new 0 0 350 350" xml:space="preserve">
<g id="R1C1_Cloud_Up">
	<path fill="#E8745D" d="M350,175c0,96.6-78.4,175-175,175C78.4,350,0,271.6,0,175S78.4,0,175,0C271.6,0,350,78.4,350,175z"/>
</g>
<path fill-rule="evenodd" clip-rule="evenodd" fill="#AA6353" d="M304.1,158.7l43.1,47.5c-13.9,76.9-76.8,132.9-150.8,143.8l0,0
	L51.8,203.3"/>
<g>
	<path fill="#FFFFFF" d="M174.5,245c-75,0-135.8-37.8-135.8-67.2v-0.4c0-29.5,60.8-67.2,135.8-67.2h1c75,0,135.8,37.8,135.8,67.2
		v0.4c0,29.5-60.8,67.2-135.8,67.2H174.5z"/>
	<circle fill="#E8745D" cx="175" cy="177.6" r="54.6"/>
	<circle fill="#F9F9FA" cx="205.4" cy="142.4" r="16.4"/>
</g>
</svg>
