<?xml version="1.0" encoding="utf-8"?>
<!-- Generator: Adobe Illustrator 17.1.0, SVG Export Plug-In . SVG Version: 6.00 Build 0)  -->
<!DOCTYPE svg PUBLIC "-//W3C//DTD SVG 1.1//EN" "http://www.w3.org/Graphics/SVG/1.1/DTD/svg11.dtd">
<svg version="1.1" id="レイヤー_1" xmlns="http://www.w3.org/2000/svg" xmlns:xlink="http://www.w3.org/1999/xlink" x="0px"
	 y="0px" viewBox="0 0 350 350" enable-background="new 0 0 350 350" xml:space="preserve">
<path fill-rule="evenodd" clip-rule="evenodd" fill="#DB4C3B" d="M175.2,350H175C78.4,349.9,0.1,271.6,0.1,175
	c0-96.6,78.4-175,175-175c96.6,0,175,78.4,175,175C350.1,271.6,271.8,349.9,175.2,350L175.2,350z"/>
<path fill-rule="evenodd" clip-rule="evenodd" fill="#B8392A" d="M190.7,349.3l-87.2-87.2L143.7,95l65.6-8.4l134.6,134.6
	C325,290.5,264.4,342.7,190.7,349.3L190.7,349.3z"/>
<path fill="#FFFFFF" d="M168,212.5l-10,24.4c-0.2,0.5-0.3,1-0.3,1.5c0,0.5,0.1,1,0.4,1.4c0.2,0.3,0.4,0.6,0.6,0.8l0.1,0.1
	c0.2,0.1,0.4,0.2,0.6,0.2h34c0.2,0,0.3,0,0.5-0.1l0.1-0.1c0.2-0.2,0.5-0.4,0.7-0.8c0.2-0.5,0.4-1,0.4-1.4c0-0.5-0.1-1-0.3-1.5
	l-10-24.4h0c-0.5-1.3-0.1-2.8,1-3.6c2.1-1.5,3.8-3.4,4.9-5.7c1.1-2.2,1.7-4.7,1.7-7.3c0-4.4-1.8-8.4-4.7-11.3
	c-2.9-2.9-6.9-4.7-11.3-4.7c-4.4,0-8.4,1.8-11.3,4.7c-2.9,2.9-4.7,6.9-4.7,11.3c0,2.6,0.6,5.1,1.7,7.3c1.1,2.2,2.8,4.2,4.8,5.7
	C168.1,209.6,168.6,211.2,168,212.5L168,212.5z M123.3,143.6v-14.9c0-15.2,5.7-29.1,14.8-39.3c9.4-10.5,22.5-17,37-17h0
	c14.5,0,27.6,6.5,37,17c9.1,10.1,14.8,24,14.8,39.3v14.9h4.6c5.9,0,11.3,2.4,15.2,6.3c3.9,3.9,6.3,9.3,6.3,15.2v81.8
	c0,5.9-2.4,11.3-6.3,15.2c-3.9,3.9-9.3,6.3-15.2,6.3H118.7c-5.9,0-11.3-2.4-15.2-6.3c-3.9-3.9-6.3-9.3-6.3-15.2v-81.8
	c0-5.9,2.4-11.3,6.3-15.2c3.9-3.9,9.3-6.3,15.2-6.3H123.3L123.3,143.6z M203.8,143.6v-14.9c0-9.4-3.4-17.8-8.9-23.9
	c-5.2-5.7-12.2-9.3-19.9-9.3h0c-7.7,0-14.7,3.6-19.9,9.3c-5.5,6.1-8.9,14.5-8.9,23.9v14.9H203.8L203.8,143.6z"/>
</svg>
