<?xml version="1.0" encoding="utf-8"?>
<!-- Generator: Adobe Illustrator 17.1.0, SVG Export Plug-In . SVG Version: 6.00 Build 0)  -->
<!DOCTYPE svg PUBLIC "-//W3C//DTD SVG 1.1//EN" "http://www.w3.org/Graphics/SVG/1.1/DTD/svg11.dtd">
<svg version="1.1" id="レイヤー_1" xmlns="http://www.w3.org/2000/svg" xmlns:xlink="http://www.w3.org/1999/xlink" x="0px"
	 y="0px" viewBox="0 0 566.9 566.9" enable-background="new 0 0 566.9 566.9" xml:space="preserve">
<g id="Disket">
	<path fill="#EF8716" d="M566.9,283.5c0,156.6-127,283.5-283.5,283.5C126.8,566.9,0,439.9,0,283.5C0,126.8,126.8,0,283.5,0
		C439.9,0,566.9,126.8,566.9,283.5z"/>
	<path fill="#965F27" d="M560,346L385,173.8l-5,11.5l-31.6-31.4l1.3,43.1l-26.4-26.2L240.1,185l-30.6-30.5l1.9,41.1l-25.1-24.9
		l4.9,130.6l69.2,69.2l-97.7,32.2l160.2,161.5C440.1,547.8,534.2,459.9,560,346z"/>
	<g>
		<g>
			<rect x="206.8" y="152.3" fill="#FFFFFF" width="14.7" height="68"/>
		</g>
		<g>
			<rect x="345.3" y="152.3" fill="#FFFFFF" width="14.7" height="68"/>
		</g>
		<g>
			<path fill="#FFFFFF" d="M401.4,169.6h-30.3c0.6,6,0.6,13,0.6,20.2c0,23.5,0,42.6-19.1,42.6c-19.1,0-18.5-19.1-18.5-42.6
				c0-7.3,0-14.3,0.5-20.2H232.9c0.6,6,0.6,13,0.6,20.2c0,23.5,0,42.6-19.1,42.6S196,213.3,196,189.8c0-7.3,0-14.3,0.5-20.2h-30.6
				c-2.6,0-4.5,2.1-4.5,4.5v236c0,2.6,2.1,4.5,4.5,4.5h236c2.6,0,4.5-2.1,4.5-4.5v-236C406.1,171.5,404,169.6,401.4,169.6z"/>
		</g>
	</g>
</g>
</svg>
