<?xml version="1.0" encoding="utf-8"?>
<!-- Generator: Adobe Illustrator 17.1.0, SVG Export Plug-In . SVG Version: 6.00 Build 0)  -->
<!DOCTYPE svg PUBLIC "-//W3C//DTD SVG 1.1//EN" "http://www.w3.org/Graphics/SVG/1.1/DTD/svg11.dtd">
<svg version="1.1" id="レイヤー_1" xmlns="http://www.w3.org/2000/svg" xmlns:xlink="http://www.w3.org/1999/xlink" x="0px"
	 y="0px" viewBox="0 0 350 350" enable-background="new 0 0 350 350" xml:space="preserve">
<path fill="#EF8716" d="M350,175c0,96.7-78.4,175-175,175C78.3,350,0,271.6,0,175C0,78.3,78.3,0,175,0C271.6,0,350,78.3,350,175z"/>
<path fill="#965F27" d="M347.2,204.6l-60.6-60.7l-8.8,29.6l-42.7-42l-21.3-11.5l-19.5-19.4l0.8,26.6l-16.3-16.2l-51.4,8.8
	l-18.9-18.8l1.2,25.4l-15.5-15.4l3,80.6l42.7,42.7l-60.3,19.9l95.3,95.8C241.4,350,326.2,309.6,347.2,204.6z"/>
<g>
	<g>
		<rect x="106.9" y="99.7" fill="#FFFFFF" width="9.1" height="42"/>
	</g>
	<g>
		<rect x="192.4" y="99.7" fill="#FFFFFF" width="9.1" height="42"/>
	</g>
	<g>
		<path fill="#FFFFFF" d="M227,110.4h-18.7c0.4,3.7,0.4,8,0.4,12.5c0,14.5,0,26.3-11.8,26.3s-11.4-11.8-11.4-26.3
			c0-4.5,0-8.8,0.3-12.5H123c0.4,3.7,0.4,8,0.4,12.5c0,14.5,0,26.3-11.8,26.3s-11.4-11.8-11.4-26.3c0-4.5,0-8.8,0.3-12.5H81.6
			c-1.6,0-2.8,1.3-2.8,2.8v145.7c0,1.6,1.3,2.8,2.8,2.8h145.7c1.6,0,2.8-1.3,2.8-2.8V113.2C229.9,111.6,228.6,110.4,227,110.4z"/>
	</g>
</g>
<g>
	<path fill="#FFFFFF" d="M320.4,188.5c0,3.4-2.8,6.2-6.2,6.2h-72.5c-3.4,0-6.2-2.8-6.2-6.2v-8.3c0-3.4,2.8-6.2,6.2-6.2h72.5
		c3.4,0,6.2,2.8,6.2,6.2V188.5z"/>
	<path fill="#FFFFFF" d="M282.1,142c3.4,0,6.2,2.8,6.2,6.2v72.5c0,3.4-2.8,6.2-6.2,6.2h-8.3c-3.4,0-6.2-2.8-6.2-6.2v-72.5
		c0-3.4,2.8-6.2,6.2-6.2C273.8,142,282.1,142,282.1,142z"/>
</g>
</svg>
