<?xml version="1.0" encoding="utf-8"?>
<!-- Generator: Adobe Illustrator 17.1.0, SVG Export Plug-In . SVG Version: 6.00 Build 0)  -->
<!DOCTYPE svg PUBLIC "-//W3C//DTD SVG 1.1//EN" "http://www.w3.org/Graphics/SVG/1.1/DTD/svg11.dtd">
<svg version="1.1" id="レイヤー_1" xmlns="http://www.w3.org/2000/svg" xmlns:xlink="http://www.w3.org/1999/xlink" x="0px"
	 y="0px" viewBox="0 0 350 350" enable-background="new 0 0 350 350" xml:space="preserve">
<g id="_x34_PersonConnect">
	<path fill="#FC8347" d="M350,175c0,96.6-78.4,175-175,175C78.3,350,0,271.6,0,175S78.3,0,175,0C271.6,0,350,78.3,350,175z"/>
</g>
<path fill="none" stroke="#FFFFFF" stroke-width="15" stroke-linecap="round" stroke-miterlimit="10" d="M214,147.2"/>
<path fill="none" stroke="#FFFFFF" stroke-width="15" stroke-linecap="round" stroke-miterlimit="10" d="M167.2,108"/>
<path fill="none" stroke="#FFFFFF" stroke-width="15" stroke-linecap="round" stroke-miterlimit="10" d="M214,180.5"/>
<path fill="none" stroke="#FFFFFF" stroke-width="15" stroke-linecap="round" stroke-miterlimit="10" d="M167.2,219.7"/>
<path fill="#C1663E" d="M204.3,347.5l-136.6-135l77.8,7.1l29.5-33.3v-35.8l-18.5-50.1l10.7-8.2l63.3,70.2l27.3,0.9l25.4,4l36.4-15.4
	l29.6,28.5c0,0,1.4,57-43.2,110.3C270.5,333.4,204.3,347.5,204.3,347.5z"/>
<g>
	<path fill="#FFFFFF" d="M176.7,213c4.4,3,9.3,5.9,14.6,8.7c5.3,2.8,8.8,5.1,10.5,6.7c1.7,1.7,2.6,4,2.6,7.1c0,2.2-1,4.3-3,6.5
		s-4.5,3.3-7.3,3.3c-2.3,0-5.1-0.7-8.5-2.2c-3.3-1.5-7.2-3.7-11.7-6.5c-4.5-2.9-9.4-6.2-14.7-10c-9.9,5-22.1,7.5-36.5,7.5
		c-11.7,0-22.2-1.9-31.4-5.6c-9.3-3.7-17-9-23.3-16s-11-15.2-14.2-24.8c-3.2-9.6-4.8-20-4.8-31.3c0-11.5,1.7-22,5-31.6
		s8.1-17.7,14.4-24.5c6.3-6.7,14-11.9,23-15.4c9-3.6,19.3-5.4,30.8-5.4c15.6,0,29,3.1,40.2,9.4c11.2,6.3,19.6,15.2,25.4,26.8
		c5.7,11.6,8.6,25.2,8.6,40.8C196,180.4,189.6,199.1,176.7,213z M152.8,196.5c4.2-4.8,7.4-10.5,9.4-17.1s3-14.2,3-22.9
		c0-10.9-1.8-20.4-5.3-28.4c-3.6-8-8.6-14.1-15.2-18.2c-6.6-4.1-14.2-6.2-22.7-6.2c-6.1,0-11.7,1.1-16.9,3.4
		c-5.2,2.3-9.6,5.6-13.3,9.9c-3.7,4.4-6.7,9.9-8.8,16.7c-2.2,6.8-3.2,14.4-3.2,22.8c0,17.2,4,30.4,12.1,39.7
		c8.1,9.3,18.3,13.9,30.6,13.9c5.1,0,10.3-1.1,15.6-3.2c-3.2-2.4-7.2-4.8-12.1-7.1c-4.8-2.4-8.1-4.2-9.9-5.5
		c-1.8-1.3-2.7-3.1-2.7-5.5c0-2,0.9-3.8,2.6-5.4c1.7-1.6,3.6-2.3,5.6-2.3C127.7,181,138.1,186.2,152.8,196.5z"/>
</g>
<g>
	<path fill="#FFFFFF" d="M322.9,168.5c0,4.2-3.4,7.6-7.6,7.6h-89.5c-4.2,0-7.6-3.4-7.6-7.6v-10.2c0-4.2,3.4-7.6,7.6-7.6h89.5
		c4.2,0,7.6,3.4,7.6,7.6V168.5z"/>
	<path fill="#FFFFFF" d="M275.6,111c4.2,0,7.6,3.4,7.6,7.6v89.5c0,4.2-3.4,7.6-7.6,7.6h-10.2c-4.2,0-7.6-3.4-7.6-7.6v-89.5
		c0-4.2,3.4-7.6,7.6-7.6H275.6z"/>
</g>
</svg>
