<?xml version="1.0" encoding="utf-8"?>
<!-- Generator: Adobe Illustrator 17.1.0, SVG Export Plug-In . SVG Version: 6.00 Build 0)  -->
<!DOCTYPE svg PUBLIC "-//W3C//DTD SVG 1.1//EN" "http://www.w3.org/Graphics/SVG/1.1/DTD/svg11.dtd">
<svg version="1.1" id="レイヤー_1" xmlns="http://www.w3.org/2000/svg" xmlns:xlink="http://www.w3.org/1999/xlink" x="0px"
	 y="0px" viewBox="0 0 350 350" enable-background="new 0 0 350 350" xml:space="preserve">
<path fill="#B43E4C" d="M148.4,280.3"/>
<path fill="#DD6FF7" d="M175.1,350h-0.2C78.3,349.9,0,271.6,0,175S78.4,0,175,0s175,78.4,175,175S271.7,349.9,175.1,350L175.1,350z"
	/>
<path fill="#0D677E" d="M233.5,116.3"/>
<path fill="#A45DB5" d="M203.1,72l142.8,137.2c-4.6,59-64.7,123.5-139.1,137.9L66.2,203.4l54.8-7.3"/>
<g>
	<path fill="#FFFFFF" d="M294.8,193.1c0,9.3-7.6,16.9-16.9,16.9H79.5c-9.3,0-16.9-7.6-16.9-16.9v-22.6c0-9.3,7.6-16.9,16.9-16.9
		h198.4c9.3,0,16.9,7.6,16.9,16.9V193.1z"/>
	<path fill="#FFFFFF" d="M190,65.7c9.3,0,16.9,7.6,16.9,16.9V281c0,9.3-7.6,16.9-16.9,16.9h-22.6c-9.3,0-16.9-7.6-16.9-16.9V82.6
		c0-9.3,7.6-16.9,16.9-16.9L190,65.7L190,65.7z"/>
</g>
</svg>
