<?xml version="1.0" encoding="utf-8"?>
<!-- Generator: Adobe Illustrator 17.1.0, SVG Export Plug-In . SVG Version: 6.00 Build 0)  -->
<!DOCTYPE svg PUBLIC "-//W3C//DTD SVG 1.1//EN" "http://www.w3.org/Graphics/SVG/1.1/DTD/svg11.dtd">
<svg version="1.1" id="レイヤー_1" xmlns="http://www.w3.org/2000/svg" xmlns:xlink="http://www.w3.org/1999/xlink" x="0px"
	 y="0px" viewBox="0 0 350 350" enable-background="new 0 0 350 350" xml:space="preserve">
<path fill-rule="evenodd" clip-rule="evenodd" fill="#DD6FF7" d="M175.1,350h-0.2C78.3,349.9,0,271.6,0,175C0,78.4,78.4,0,175,0
	c96.6,0,175,78.4,175,175C350,271.6,271.7,349.9,175.1,350L175.1,350z"/>
<path fill-rule="evenodd" clip-rule="evenodd" fill="#A45DB5" d="M285.9,65.9l61.5,79.7C359.5,269.9,272.8,350,176.3,350l0,0
	L44.2,183.8L97.4,155l71.7,90.1l99.9-89.8L285.9,65.9z"/>
<path fill="#FFFFFF" d="M44.2,184.3L97.4,155l53.1,83.3c0,0,61.7-125.3,137.7-172.4L294,153c0,0-57,0.9-141.5,137.2L44.2,184.3z"/>
<path fill="#B43E4C" d="M319.3,270.7"/>
</svg>
