<?xml version="1.0" encoding="utf-8"?>
<!-- Generator: Adobe Illustrator 17.1.0, SVG Export Plug-In . SVG Version: 6.00 Build 0)  -->
<!DOCTYPE svg PUBLIC "-//W3C//DTD SVG 1.1//EN" "http://www.w3.org/Graphics/SVG/1.1/DTD/svg11.dtd">
<svg version="1.1" id="レイヤー_1" xmlns="http://www.w3.org/2000/svg" xmlns:xlink="http://www.w3.org/1999/xlink" x="0px"
	 y="0px" viewBox="0 0 350 350" enable-background="new 0 0 350 350" xml:space="preserve">
<path fill-rule="evenodd" clip-rule="evenodd" fill="#865495" d="M175.1,350h-0.2C78.3,349.9,0,271.6,0,175C0,78.4,78.4,0,175,0
	c96.6,0,175,78.4,175,175C350,271.6,271.7,349.9,175.1,350L175.1,350z"/>
<path fill-rule="evenodd" clip-rule="evenodd" fill="#784088" d="M182.6,349.8L78.1,245.3l67.5-36.3l40.4,40.4l3.4-1.6l-95.2-95.3
	l57.3-58.7l98.8,24.8l20.7-15.3l78.9,78.9C346.1,273.1,273.3,346,182.6,349.8L182.6,349.8z"/>
<path fill="#FFFFFF" d="M235.2,202.3c3.1-6.8,11-9.8,17.8-6.7c6.8,3.1,9.8,11,6.7,17.8c-4.4,9.7-10.4,18.7-18,26.5
	c-7.3,7.5-16,13.9-25.9,18.8c-23.1,11.3-48.5,12.1-71,4.3c-14.4-5-27.6-13.4-38.1-24.9l-19.9,9.7l0,0c-1.3,0.6-2.8,0.9-4.4,0.5
	c-3.6-0.8-5.9-4.4-5.1-8l11-49.3c0.1-0.6,0.3-1.2,0.6-1.8c1.6-3.4,5.6-4.8,8.9-3.2l45.7,21.7c1.5,0.6,2.7,1.7,3.5,3.3
	c1.6,3.3,0.2,7.4-3.1,9l-11.4,5.6c6.3,5.3,13.5,9.3,21.1,12c16,5.5,34.1,4.9,50.5-3.1c7.1-3.5,13.3-8,18.4-13.3
	C227.7,215.6,232,209.2,235.2,202.3L235.2,202.3z M206.2,130.1l11.4-5.6c-6.3-5.3-13.5-9.3-21.1-12c-16-5.5-34.1-4.9-50.5,3.1
	c-7.1,3.5-13.3,8-18.4,13.3c-5.3,5.5-9.6,11.9-12.8,18.8c-3.1,6.8-11,9.8-17.8,6.7c-6.8-3.1-9.8-11-6.7-17.8
	c4.4-9.7,10.4-18.7,18-26.5c7.3-7.5,16-13.9,25.9-18.8c23.1-11.2,48.5-12.1,71-4.3c14.4,5,27.6,13.4,38.1,24.9l19.9-9.7
	c3.3-1.6,7.4-0.2,9,3.1c0.8,1.6,0.9,3.3,0.4,4.9l-11,49.2c-0.8,3.6-4.4,5.9-8,5.1c-0.5-0.1-1-0.3-1.4-0.5l0,0l-46-21.9
	c-3.4-1.6-4.8-5.6-3.2-9C203.8,131.9,204.9,130.8,206.2,130.1L206.2,130.1L206.2,130.1z"/>
</svg>
