<?xml version="1.0" encoding="utf-8"?>
<!-- Generator: Adobe Illustrator 16.0.0, SVG Export Plug-In . SVG Version: 6.00 Build 0)  -->
<!DOCTYPE svg PUBLIC "-//W3C//DTD SVG 1.1//EN" "http://www.w3.org/Graphics/SVG/1.1/DTD/svg11.dtd">
<svg version="1.1" id="レイヤー_1" xmlns="http://www.w3.org/2000/svg" xmlns:xlink="http://www.w3.org/1999/xlink" x="0px"
	 y="0px" width="850.39px" height="850.39px" viewBox="0 0 850.39 850.39" enable-background="new 0 0 850.39 850.39"
	 xml:space="preserve">
<path fill="#8E6436" d="M423.217,848.448c-234.85,0-425.23-190.38-425.23-425.231c0-234.85,190.38-425.23,425.23-425.23
	c234.851,0,425.231,190.38,425.231,425.23C848.448,658.068,658.068,848.448,423.217,848.448z"/>
<path fill="#FFFFFF" d="M608.151,579.814c-5.778-26.338-49.114-69.701-49.114-69.701c-66.271-63.489-78.606-72.382-100.531-97.185
	c12.005-20.142,29.139-48.458,40.608-65.636c0,0,4.485-5.787,10.268,0.633c0,0,45.606,46.253,88.638-9.63
	c0,0,34.685-55.234-17.986-89.911c0,0-58.443-30.189-87.348,38.53c0,0-21.918,43.673-33.476,61.661c0,0-8.946,17.824-28.256,33.959
	c-19.303-16.136-28.254-33.959-28.254-33.959c-11.559-17.988-33.476-61.661-33.476-61.661c-28.897-68.719-87.348-38.53-87.348-38.53
	c-52.666,34.677-17.982,89.911-17.982,89.911c43.032,55.884,88.636,9.63,88.636,9.63c5.777-6.42,10.278-0.633,10.278-0.633
	c11.454,17.179,28.588,45.495,40.601,65.636c-21.932,24.803-36.61,34.479-103.349,99.965c0,0-40.524,40.583-46.295,66.921
	c0,0-6.431,30.656,12.201,55.792l164.989-174.51l164.997,174.51C614.574,610.471,608.151,579.814,608.151,579.814z M537.664,269.855
	c18.933-7.102,39.732,1.677,46.458,19.611c6.73,17.936-3.16,38.229-22.091,45.338c-18.933,7.102-39.741-1.684-46.463-19.619
	C508.846,297.247,518.733,276.958,537.664,269.855z M346.338,315.186c-6.722,17.935-27.521,26.721-46.454,19.619
	c-18.931-7.108-28.828-27.402-22.096-45.338c6.721-17.935,27.53-26.713,46.454-19.611
	C343.182,276.958,353.071,297.247,346.338,315.186z"/>
</svg>
