<?xml version="1.0" encoding="utf-8"?>
<!-- Generator: Adobe Illustrator 17.1.0, SVG Export Plug-In . SVG Version: 6.00 Build 0)  -->
<!DOCTYPE svg PUBLIC "-//W3C//DTD SVG 1.1//EN" "http://www.w3.org/Graphics/SVG/1.1/DTD/svg11.dtd">
<svg version="1.1" id="レイヤー_1" xmlns="http://www.w3.org/2000/svg" xmlns:xlink="http://www.w3.org/1999/xlink" x="0px"
	 y="0px" viewBox="0 0 350 350" enable-background="new 0 0 350 350" xml:space="preserve">
<g id="Glass">
	<path fill="#77D86C" d="M350,175c0,96.7-78.4,175-175,175S0,271.7,0,175C0,78.4,78.4,0,175,0S350,78.3,350,175z"/>
	<g>
		<path fill="#5EA352" d="M267.5,128.9c2.3,6.9,3.6,14.3,3.6,22c0,38.7-31.5,70.2-70.2,70.2C187,221.1,174,217,163,210
			c-0.6,0.8-1.2,1.6-1.9,2.3c-0.2,0.2-0.5,0.5-0.7,0.7c-16.5,16.9-33,33.7-49.5,50.6c-2.5,2.6-5.7,4.2-9,5l81.2,81.2
			c81.6-3.8,148.6-63.4,163.6-141.5L267.5,128.9z"/>
		<path opacity="0.1" enable-background="new    " d="M200.9,100.9c-27.6,0-50.1,22.5-50.1,50.1s22.5,50.1,50.1,50.1
			S251,178.6,251,151C251,123.3,228.5,100.9,200.9,100.9z"/>
		<path fill="#FFFFFF" d="M160.4,213c0.2-0.2,0.5-0.5,0.7-0.7c0.7-0.7,1.3-1.5,1.9-2.3c10.9,7,23.9,11.1,37.9,11.1
			c38.7,0,70.2-31.5,70.2-70.2c0-7.7-1.3-15.1-3.6-22c-9.3-27.9-35.6-48.1-66.6-48.1c-38.7,0-70.2,31.5-70.2,70.2
			c0,11.5,2.8,22.3,7.6,31.8c-1.4,0.8-2.8,1.8-4,3.1c-16.5,16.9-33,33.7-49.5,50.6c-0.2,0.2-0.5,0.5-0.7,0.7
			c-7.2,7.3-7.2,19.4,0.1,26.6c4.7,4.6,11.5,6.2,17.6,4.8c3.3-0.8,6.5-2.4,9-5C127.4,246.7,143.9,229.9,160.4,213z M200.9,201.1
			c-27.6,0-50.1-22.5-50.1-50.1s22.5-50.1,50.1-50.1S251,123.4,251,151S228.5,201.1,200.9,201.1z"/>
	</g>
</g>
</svg>
