<?xml version="1.0" encoding="utf-8"?>
<!-- Generator: Adobe Illustrator 17.1.0, SVG Export Plug-In . SVG Version: 6.00 Build 0)  -->
<!DOCTYPE svg PUBLIC "-//W3C//DTD SVG 1.1//EN" "http://www.w3.org/Graphics/SVG/1.1/DTD/svg11.dtd">
<svg version="1.1" id="レイヤー_1" xmlns="http://www.w3.org/2000/svg" xmlns:xlink="http://www.w3.org/1999/xlink" x="0px"
	 y="0px" viewBox="0 0 350 350" enable-background="new 0 0 350 350" xml:space="preserve">
<path fill="#E9C021" d="M348.7,174.2c0,95.9-77.7,173.6-173.6,173.6c-95.9,0-173.6-77.7-173.6-173.6C1.5,78.4,79.3,0.6,175.1,0.6
	C271,0.6,348.7,78.4,348.7,174.2z"/>
<g>
	<path fill="#E8961C" d="M83.2,116c0,5.8,0.2,11.5,0.9,17.2c0,0.3,0.1,0.6,0.1,0.9c0.9,6,2.3,12,4.6,17.6c1.6,3.5,3.5,6.9,5.8,10.1
		c1.9,2.3,4.1,4.5,6.5,6.4c2.6,1.8,5.3,3.4,8.2,4.7c4.1,1.6,8.4,2.7,12.8,3.4c7.3,0.9,14.7,0.8,22,0c4.9-0.7,9.7-1.9,14.3-3.6
		c2.8-1.3,5.5-2.8,8.1-4.6c2-1.7,3.8-3.5,5.5-5.5c1.7-2.4,3.2-5,4.4-7.8c1.8-4.6,2.9-9.4,3.7-14.3c0.4-3.2,0.6-6.5,0.8-9.8
		c0.3-6.7,0-13.4-0.3-20.2c-0.3-5.9-0.7-11.8-0.7-17.7c0-1.1,0.2-2.1,0.5-3.1l-15.2-15.2c0,0.6,0.1,1.2,0.1,1.8c0,0.7,0,1.4,0,2
		c0,4.5,0,8.9,0,13.4c0,6.4,0,12.9,0,19.3c0,5.8,0,11.6,0,17.3c0,2.5,0,5,0,7.5c0,8.5-3.5,16.8-9.5,22.8c-6.2,6.2-14.8,9.8-23.5,9.7
		c-8.5-0.1-16.8-3.5-22.8-9.5c-6.3-6.2-9.7-14.7-9.7-23.5c0-0.7,0-1.4,0-2c0-4.5,0-8.9,0-13.4c0-1.9,0-3.9,0-5.8L83.9,98.3
		c0,0.7-0.1,1.4-0.1,2.1C83.5,105.6,83.3,110.8,83.2,116z"/>
	<path fill="#E8961C" d="M121.6,197.1c-4.5-0.5-9-1.3-13.3-2.5c-1.9-0.6-3.8-1.2-5.7-2c-1.8-0.8-3.7-1.6-5.5-2.4l24.6,24.6
		c0-3.1-0.1-6.2-0.1-9.3C121.7,202.6,121.6,199.9,121.6,197.1z"/>
	<path fill="#E8961C" d="M200.7,93.3c0,5.3,0.3,10.5,0.6,15.8c0.3,6.7,0.6,13.4,0.4,20.1c-0.1,3.4-0.3,6.9-0.7,10.3
		c-0.5,4.2-1.1,8.5-2.1,12.6c-1,4.1-2.4,8-4,11.8c-1.3,3-2.8,5.9-4.7,8.6c-2.4,3.4-5,6.7-8.2,9.5c-3.4,2.9-7,5.6-11,7.6
		c-4.4,2.3-9.2,4.1-14,5.3c-4.7,1.2-9.6,1.9-14.5,2.4c0,2.8,0.1,5.6,0.1,8.4c0.1,6.4,0.1,12.7,0.2,19.1c0,2.2,0.1,4.5,0.1,6.7
		c1.6,0,3.1,0,4.7,0c5.2,0,10.3,0,15.5,0c2.1,0,4.2,0,6.3,0c5.7,0,10.4,4.9,10.4,10.5c0,5.7-4.8,10.4-10.5,10.4c-0.7,0-1.3,0-2,0
		c-4,0-8,0-12,0c-6.1,0-12.2,0-18.3,0c-6.5,0-13,0-19.5,0c-5.2,0-10.3,0-15.5,0c-0.7,0-1.3,0-2,0l98.9,93.9
		c86.2-16.2,149.9-80.5,149.9-172l-45.1-42.1l-22.3,32.1L200.7,93.3z"/>
	<path fill="#FFFFFF" d="M99.7,133.3c0,0.7,0,1.4,0,2c0,8.8,3.5,17.4,9.7,23.5c6,6,14.3,9.4,22.8,9.5c8.8,0.1,17.4-3.5,23.5-9.7
		c5.9-6,9.5-14.4,9.5-22.8c0-2.5,0-5,0-7.5c0-5.8,0-11.6,0-17.3c0-6.4,0-12.9,0-19.3c0-4.5,0-8.9,0-13.4c0-0.7,0-1.4,0-2
		c0-0.6-0.1-1.2-0.1-1.8c-0.4-8.2-3.8-16-9.6-21.8c-6-6-14.3-9.4-22.8-9.5c-8.8-0.1-17.4,3.5-23.6,9.7c-5.9,6-9.5,14.4-9.5,22.8
		c0,2.5,0,5,0,7.5c0,5.8,0,11.6,0,17.3c0,4.5,0,9,0,13.5c0,1.9,0,3.9,0,5.8C99.7,124.4,99.7,128.8,99.7,133.3z"/>
	<path fill="#FFFFFF" d="M117.4,252.4c6.5,0,13,0,19.5,0c6.1,0,12.2,0,18.3,0c4,0,8,0,12,0c0.7,0,1.4,0,2,0
		c5.7,0,10.5-4.6,10.5-10.4c0-5.7-4.7-10.5-10.4-10.5c-2.1,0-4.2,0-6.3,0c-5.2,0-10.3,0-15.5,0c-1.6,0-3.1,0-4.7,0
		c0-2.2-0.1-4.5-0.1-6.7c-0.1-6.4-0.1-12.7-0.2-19.1c0-2.8-0.1-5.6-0.1-8.4c4.9-0.4,9.8-1.2,14.5-2.4c4.8-1.2,9.6-3,14-5.3
		c4-2,7.6-4.7,11-7.6c3.2-2.8,5.8-6.1,8.2-9.5c1.9-2.7,3.4-5.6,4.7-8.6c1.6-3.9,3.1-7.7,4-11.8c1-4.1,1.6-8.4,2.1-12.6
		c0.4-3.4,0.6-6.8,0.7-10.3c0.2-6.7-0.1-13.4-0.4-20.1c-0.3-5.3-0.6-10.5-0.6-15.8c0-0.2,0-0.3,0-0.5c0-5.7-4.6-10.5-10.4-10.5
		c-4.6,0-8.6,3.1-10,7.3c-0.3,1-0.5,2-0.5,3.1c0,5.9,0.4,11.8,0.7,17.7c0.3,6.7,0.5,13.4,0.3,20.2c-0.1,3.3-0.4,6.5-0.8,9.8
		c-0.8,4.9-1.9,9.7-3.7,14.3c-1.2,2.7-2.7,5.3-4.4,7.8c-1.6,2-3.5,3.9-5.5,5.5c-2.5,1.8-5.2,3.4-8.1,4.6c-4.6,1.8-9.4,2.9-14.3,3.6
		c-7.3,0.8-14.7,0.9-22,0c-4.4-0.7-8.7-1.8-12.8-3.4c-2.9-1.3-5.7-2.9-8.2-4.7c-2.4-1.9-4.5-4.1-6.5-6.4c-2.3-3.1-4.2-6.5-5.8-10.1
		c-2.2-5.7-3.6-11.6-4.6-17.6c0-0.3-0.1-0.6-0.1-0.9c-0.7-5.7-0.9-11.5-0.9-17.2c0-5.2,0.3-10.4,0.6-15.5c0-0.7,0.1-1.4,0.1-2.1
		c0.1-2,0.2-3.9,0.2-5.9c0-5.7-4.7-10.5-10.4-10.5c-5.7,0-10.5,4.7-10.5,10.4c0,3.9-0.3,7.7-0.5,11.6c-0.3,5.5-0.4,11.1-0.3,16.6
		c0.2,7.3,0.9,14.5,2.1,21.7c1.3,7.4,3.6,14.5,6.8,21.3c1.4,3,3,5.8,5,8.5c2.5,3.4,5.1,6.7,8.3,9.5c3.2,2.9,6.8,5.6,10.6,7.7
		c0.7,0.4,1.3,0.7,2,1c1.8,0.9,3.6,1.7,5.5,2.4c1.8,0.8,3.7,1.4,5.7,2c4.3,1.3,8.8,2,13.3,2.5c0,2.8,0.1,5.6,0.1,8.3
		c0,3.1,0.1,6.2,0.1,9.3c0,3.3,0.1,6.5,0.1,9.8c0,2.3,0.1,4.6,0.1,7c-4.1,0-8.1,0-12.2,0c-4,0-8,0-12,0c-0.7,0-1.3,0-2,0
		c-5.7,0-10.5,4.7-10.5,10.4c0,5.7,4.7,10.5,10.4,10.5c1.4,0,2.9,0,4.3,0c0.7,0,1.3,0,2,0C107.1,252.4,112.2,252.4,117.4,252.4z"/>
</g>
<g>
	<g>
		<g>
			<path fill="#FFFFFF" d="M223,276c0,0,2-1.1,0.9-3.4c-1.1-2.3-0.8-2.3-2.8-4c-2-1.6-1.5-1.7-2.8-1.9c-1.3-0.2-2.5-1.4-3.5-1
				c-0.9,0.3-4.4,1.6-4.4,1.6l-21,16.5l3.2,3.1L223,276z"/>
			<path fill="#FFFFFF" d="M297.6,184.8c-2.1,2.5-5.8,2.9-8.3,0.9l-27.5-22.2c-2.5-2.1-2.9-5.8-0.9-8.3l24.5-30.2
				c2.1-2.5,5.8-2.9,8.3-0.9l27.5,22.2c2.5,2.1,2.9,5.8,0.9,8.3L297.6,184.8z"/>
			
				<rect x="223.9" y="143" transform="matrix(-0.7774 -0.629 0.629 -0.7774 283.8822 507.6716)" fill="#FFFFFF" width="15.7" height="121.2"/>
			
				<rect x="234.4" y="157.8" transform="matrix(-0.7775 -0.6289 0.6289 -0.7775 307.1743 545.5951)" fill="#FFFFFF" width="31.5" height="121.2"/>
			<path fill="#FFFFFF" d="M183.1,278.9l4.5-31.5c0,0,1.4-1.4,1.9-1.3c0.4,0.1,3.3,0.7,3.5,0.9c0.2,0.1,1.1,0,2.3,1
				c1.2,1,0.7,0.1,1.6,1.7c0.9,1.6,1.3,2.2,1.3,2.6c0,0.4,0.8,2.4,0.8,2.4l-0.7,2.7l-11.8,24.3L183.1,278.9z"/>
			<path fill="#FFFFFF" d="M210.4,267.4c0,0,0.9-2.7,0.8-3.7c-0.1-1.1-0.3-1.9-1.2-3.4c-0.9-1.5-0.8-3-2.2-3.2c-1.4-0.2-2.6-1.3-4-1
				c-1.5,0.3-3-0.1-3.9,0.2c-0.9,0.3-1.7,1.1-1.7,1.1l-11.8,24.3l3,2.3L210.4,267.4z"/>
			<path fill="#FFFFFF" d="M183.1,278.9l-1.1,7.2c0,0-1.5,5.5,4.4,3.3l6.3-2.3l-4.8-4.9L183.1,278.9z"/>
			<path fill="#FFFFFF" d="M187.5,245.8c0,0,12.2-3.8,12.2,9.1l0,0.8c0,0,13-4.6,12.3,9.9c0,0,13.5-4.6,12.2,9.9L223,276
				c0,0-0.4-11.2-12.6-8.6c0,0,0.9-12.8-12.1-10.1c0,0,0.2-11.6-10.7-9.9L187.5,245.8z"/>
		</g>
	</g>
</g>
</svg>
