<?xml version="1.0" encoding="utf-8"?>
<!-- Generator: Adobe Illustrator 17.1.0, SVG Export Plug-In . SVG Version: 6.00 Build 0)  -->
<!DOCTYPE svg PUBLIC "-//W3C//DTD SVG 1.1//EN" "http://www.w3.org/Graphics/SVG/1.1/DTD/svg11.dtd">
<svg version="1.1" id="レイヤー_1" xmlns="http://www.w3.org/2000/svg" xmlns:xlink="http://www.w3.org/1999/xlink" x="0px"
	 y="0px" viewBox="0 0 566.9 566.9" enable-background="new 0 0 566.9 566.9" xml:space="preserve">
<g id="R5C4_BookIII">
	<path fill="#CE4242" d="M566.9,283.5c0,156.5-127,283.5-283.5,283.5S0,439.9,0,283.5C0,126.8,127,0,283.5,0
		S566.9,126.8,566.9,283.5z"/>
	<g>
		<path opacity="0.1" fill="#040000" enable-background="new    " d="M158.3,232.3l13.4,13.4v0.2c4.4-1.6,9.1-2.6,13.9-2.6
			C174.9,243.1,165.4,239.1,158.3,232.3z"/>
		<path fill="#893636" d="M421.6,162.6c-3.4,3.7-6.2,7.6-8.4,11.5H188.4v2.1h223.7c-1.6,2.9-2.9,6-3.9,9.1H188.4v2.1h219.2
			c-0.8,3.1-1.5,6-1.8,9.1H188.4v2.1h217.1c-0.2,3.1-0.2,6,0.3,9.1H188.4v2.1h217.5c0.5,3.1,1.1,6,2.1,9.1H188.4v2.1h220.5
			c1.1,3.1,2.4,6,4,9.1H188.4v2.1h225.5c2.3,3.9,4.9,7.8,7.8,11.5c-3.4,3.7-6.2,7.6-8.4,11.5H188.4v2.1h223.7
			c-1.6,2.9-2.9,6-3.9,9.1H188.4v2.1h219.2c-0.8,3.1-1.5,6-1.8,9.1H188.4v2.1h217.1c-0.2,3.1-0.2,6,0.3,9.1H188.4v2.1h217.5
			c0.5,3.1,1.1,6,2.1,9.1H188.4v2.1h220.5c1.1,3.1,2.4,6,4,9.1H188.4v2.1h225.5c2.3,3.9,4.9,7.8,7.8,11.5c-3.4,3.7-6.2,7.6-8.4,11.5
			H188.4v2.1h223.7c-1.6,2.9-2.9,6-3.9,9.1H188.4v2.1h219.2c-0.8,3.1-1.5,6-1.8,9.1H188.4v2.1h217.1c-0.2,3.1-0.2,6,0.3,9.1H188.4
			v2.1h217.5c0.5,3.1,1.1,6,2.1,9.1H188.4v2.1h220.5c1.1,3.1,2.4,6,4,9.1H188.4v2.1h225.5c2.3,3.9,4.9,7.8,7.8,11.5H185.5
			c-8.1,0-15.6-2.4-21.9-6.5l165.5,165.5c127.3-20.6,226.1-126,236.8-256.4L421.6,162.6z"/>
		<path opacity="0.1" fill="#040000" enable-background="new    " d="M158.1,312.8l13.4,13.4v0.2c4.4-1.6,9.1-2.6,14.1-2.6
			C174.9,323.8,165.2,319.6,158.1,312.8z"/>
		<path fill="#FFFFFF" d="M421.6,404.3c-3.1-3.7-5.5-7.6-7.8-11.5H188.4v-2.1h224.3c-1.6-2.9-2.9-6-4-9.1H188.4v-2.1H408
			c-1-2.9-1.6-6-2.1-9.1H188.4v-2.1h217.4c-0.3-2.9-0.5-6-0.3-9.1H188.4v-2.1h217.4c0.3-3.1,0.8-6,1.8-9.1H188.4V346h219.8
			c1-3.1,2.3-6,3.9-9.1H188.4v-2.1h224.8c2.3-3.9,5-7.8,8.4-11.5c-3.1-3.7-5.5-7.6-7.8-11.5H188.4v-2.1h224.3c-1.6-2.9-2.9-6-4-9.1
			H188.4v-2.1H408c-1-2.9-1.6-6-2.1-9.1H188.4v-2.1h217.4c-0.3-2.9-0.5-6-0.3-9.1H188.4v-2.1h217.4c0.3-3.1,0.8-6,1.8-9.1H188.4V265
			h219.8c1-3.1,2.3-6,3.9-9.1H188.4v-2.1h224.8c2.3-3.9,5-7.8,8.4-11.5c-3.1-3.7-5.5-7.6-7.8-11.5H188.4v-2.1h224.3
			c-1.6-2.9-2.9-6-4-9.1H188.4v-2.1H408c-1-2.9-1.6-6-2.1-9.1H188.4v-2.1h217.4c-0.3-2.9-0.5-6-0.3-9.1H188.4v-2.1h217.4
			c0.3-3.1,0.8-6,1.8-9.1H188.4V184h219.8c1-3.1,2.3-6,3.9-9.1H188.4v-2.1h224.8c2.3-3.9,5-7.8,8.4-11.5H185.5
			c-22.2,0-40.3,18-40.3,40.3c0,11.7,5,22,13,29.3c7.1,6.6,16.7,10.9,27.4,10.9c-4.9,0-9.6,1-13.9,2.6
			c-15.4,5.7-26.2,20.4-26.2,37.6c0,11.7,5,22,12.8,29.3c7.1,6.8,16.8,11,27.4,11c-5,0-9.7,1-14.1,2.6
			c-15.2,5.7-26.2,20.4-26.2,37.6c0,14.1,7.3,26.6,18.3,33.7c6.3,4,13.8,6.5,21.9,6.5h236.3V404.3z"/>
	</g>
</g>
</svg>
