<?xml version="1.0" encoding="UTF-8" standalone="no"?>
<!-- Created with Inkscape (http://www.inkscape.org/) -->

<svg
   xmlns:dc="http://purl.org/dc/elements/1.1/"
   xmlns:cc="http://creativecommons.org/ns#"
   xmlns:rdf="http://www.w3.org/1999/02/22-rdf-syntax-ns#"
   xmlns:svg="http://www.w3.org/2000/svg"
   xmlns="http://www.w3.org/2000/svg"
   xmlns:sodipodi="http://sodipodi.sourceforge.net/DTD/sodipodi-0.dtd"
   xmlns:inkscape="http://www.inkscape.org/namespaces/inkscape"
   width="48.5mm"
   height="12mm"
   viewBox="0 0 48.5 12"
   version="1.1"
   id="svg191"
   inkscape:version="0.92.2 (5c3e80d, 2017-08-06)"
   sodipodi:docname="top_logo.svg">
  <defs
     id="defs185">
    <clipPath
       clipPathUnits="userSpaceOnUse"
       id="clipPath1604">
      <path
         d="M 0,595.28 H 841.89 V 0 H 0 Z"
         id="path1602"
         inkscape:connector-curvature="0" />
    </clipPath>
  </defs>
  <sodipodi:namedview
     id="base"
     pagecolor="#ffffff"
     bordercolor="#666666"
     borderopacity="1.0"
     inkscape:pageopacity="0.0"
     inkscape:pageshadow="2"
     inkscape:zoom="3.959798"
     inkscape:cx="139.56036"
     inkscape:cy="60.284633"
     inkscape:document-units="mm"
     inkscape:current-layer="layer1"
     showgrid="false"
     inkscape:window-width="1280"
     inkscape:window-height="961"
     inkscape:window-x="-8"
     inkscape:window-y="-8"
     inkscape:window-maximized="1" />
  <metadata
     id="metadata188">
    <rdf:RDF>
      <cc:Work
         rdf:about="">
        <dc:format>image/svg+xml</dc:format>
        <dc:type
           rdf:resource="http://purl.org/dc/dcmitype/StillImage" />
        <dc:title></dc:title>
      </cc:Work>
    </rdf:RDF>
  </metadata>
  <g
     inkscape:label="レイヤー 1"
     inkscape:groupmode="layer"
     id="layer1"
     transform="translate(0,-285)">
    <path
       inkscape:connector-curvature="0"
       id="path1596"
       style="fill:#e60013;fill-opacity:1;fill-rule:nonzero;stroke:none;stroke-width:0.14132433"
       d="m 11.514855,285.8998 v -0.64511 H 9.4636658 9.1804272 v 0.32323 2.49816 0.32368 h 0.2832386 2.0511892 v -0.64752 H 9.7476988 v -0.65008 H 11.261836 V 286.456 H 9.7476988 v -0.5562 z" />
    <g
       id="g1606"
       transform="matrix(0.13254009,0,0,-0.15069076,13.162407,287.85451)">
      <path
         d="m 0,0 c -1.813,0 -3.522,0.707 -4.8,1.987 -1.277,1.278 -1.975,2.977 -1.975,4.793 0,1.809 0.698,3.513 1.975,4.788 1.278,1.281 2.987,1.988 4.8,1.988 1.805,0 3.514,-0.707 4.793,-1.988 0.648,-0.643 1.151,-1.406 1.482,-2.221 h 4.477 C 10.287,11.311 9.296,13.132 7.822,14.612 5.73,16.695 2.949,17.844 0,17.844 c -6.104,0 -11.063,-4.965 -11.063,-11.064 0,-2.95 1.149,-5.729 3.239,-7.819 2.088,-2.096 4.864,-3.254 7.824,-3.254 2.949,0 5.73,1.158 7.822,3.254 1.616,1.618 2.672,3.648 3.056,5.855 H 6.485 C 5.64,2.027 3.054,0 0,0"
         style="fill:#e60013;fill-opacity:1;fill-rule:nonzero;stroke:none"
         id="path1608"
         inkscape:connector-curvature="0" />
    </g>
    <g
       id="g1610"
       transform="matrix(0.13254009,0,0,-0.15069076,16.306868,287.85451)">
      <path
         d="m 0,0 c -1.807,0 -3.516,0.707 -4.798,1.987 -1.275,1.278 -1.987,2.977 -1.987,4.793 0,1.809 0.712,3.513 1.987,4.788 1.282,1.281 2.991,1.988 4.798,1.988 1.815,0 3.516,-0.707 4.8,-1.988 0.65,-0.643 1.146,-1.406 1.475,-2.221 h 4.481 C 10.298,11.311 9.297,13.132 7.822,14.612 5.739,16.695 2.96,17.844 0,17.844 c -6.097,0 -11.063,-4.965 -11.063,-11.064 0,-2.95 1.151,-5.729 3.238,-7.819 2.093,-2.096 4.872,-3.254 7.825,-3.254 2.96,0 5.739,1.158 7.822,3.254 1.627,1.618 2.669,3.648 3.063,5.855 H 6.484 C 5.648,2.027 3.06,0 0,0"
         style="fill:#e60013;fill-opacity:1;fill-rule:nonzero;stroke:none"
         id="path1612"
         inkscape:connector-curvature="0" />
    </g>
    <path
       d="m 9.0836553,289.89265 h 1.2354057 v 5.09817 H 9.0836553 Z"
       style="fill:#231916;fill-opacity:1;fill-rule:nonzero;stroke:none;stroke-width:0.14132433"
       id="path1614"
       inkscape:connector-curvature="0" />
    <g
       id="g1616"
       transform="matrix(0.13254009,0,0,-0.15069076,11.228127,291.4756)">
      <path
         d="m 0,0 h 7.523 v -4.731 c 2.224,3.833 4.874,5.489 8.944,5.489 3.028,0 5.488,-1.041 6.908,-2.84 1.562,-1.987 1.703,-4.542 1.703,-7.901 v -13.344 h -8.233 v 12.492 c 0,3.644 -1.088,5.347 -3.832,5.347 -3.692,0 -4.922,-2.792 -4.922,-8.044 v -9.795 H 0 Z"
         style="fill:#231916;fill-opacity:1;fill-rule:nonzero;stroke:none"
         id="path1618"
         inkscape:connector-curvature="0" />
    </g>
    <g
       id="g1620"
       transform="matrix(0.13254009,0,0,-0.15069076,15.492061,292.35251)">
      <path
         d="M 0,0 H -3.501 V 5.819 H 0 v 6.956 H 8.092 V 5.819 h 3.501 V 0 H 8.092 V -17.508 H 0 Z"
         style="fill:#231916;fill-opacity:1;fill-rule:nonzero;stroke:none"
         id="path1622"
         inkscape:connector-curvature="0" />
    </g>
    <g
       id="g1624"
       transform="matrix(0.13254009,0,0,-0.15069076,19.047595,292.11721)">
      <path
         d="M 0,0 C -2.649,0 -4.306,-1.467 -4.779,-4.401 H 4.685 C 4.4,-1.704 2.461,0 0,0 m -4.968,-9.038 c 0.047,-3.644 1.94,-5.631 5.252,-5.631 2.508,0 4.211,0.946 5.111,2.792 l 6.198,-2.508 c -1.467,-3.502 -5.3,-5.584 -10.836,-5.584 -8.517,0 -13.486,5.253 -13.486,12.303 0,7.051 5.253,12.682 13.013,12.682 7.57,0 12.492,-5.111 12.492,-13.675 v -0.379 z"
         style="fill:#231916;fill-opacity:1;fill-rule:nonzero;stroke:none"
         id="path1626"
         inkscape:connector-curvature="0" />
    </g>
    <g
       id="g1628"
       transform="matrix(0.13254009,0,0,-0.15069076,21.373647,291.4756)">
      <path
         d="m 0,0 h 7.761 v -5.488 c 1.513,3.88 4.4,6.009 7.996,6.009 0.568,0 1.325,-0.047 2.319,-0.142 l -0.805,-7.477 c -0.994,0.285 -1.892,0.474 -2.838,0.474 -3.881,0 -6.246,-2.366 -6.246,-7.051 v -9.652 H 0 Z"
         style="fill:#231916;fill-opacity:1;fill-rule:nonzero;stroke:none"
         id="path1630"
         inkscape:connector-curvature="0" />
    </g>
    <g
       id="g1632"
       transform="matrix(0.13254009,0,0,-0.15069076,24.107551,293.75008)">
      <path
         d="m 0,0 c 2.414,-2.13 5.489,-3.265 8.328,-3.265 2.082,0 3.171,0.709 3.171,1.94 0,1.94 -1.894,1.94 -4.969,2.744 -4.826,1.278 -7.051,3.407 -7.051,6.956 0,4.259 3.361,7.477 9.464,7.477 3.077,0 6.105,-0.71 9.322,-2.13 L 16.562,8.044 C 14.29,9.605 12.02,10.315 9.843,10.315 7.95,10.315 7.004,9.7 7.004,8.611 c 0,-1.608 2.081,-1.703 5.347,-2.697 4.447,-1.324 6.624,-3.311 6.624,-7.05 0,-4.684 -3.833,-7.997 -10.032,-7.997 -4.021,0 -7.475,0.9 -10.646,2.84 z"
         style="fill:#231916;fill-opacity:1;fill-rule:nonzero;stroke:none"
         id="path1634"
         inkscape:connector-curvature="0" />
    </g>
    <g
       id="g1636"
       transform="matrix(0.13254009,0,0,-0.15069076,28.716553,292.11721)">
      <path
         d="M 0,0 C -2.649,0 -4.306,-1.467 -4.779,-4.401 H 4.685 C 4.4,-1.704 2.461,0 0,0 m -4.968,-9.038 c 0.047,-3.644 1.94,-5.631 5.252,-5.631 2.508,0 4.211,0.946 5.111,2.792 l 6.198,-2.508 c -1.467,-3.502 -5.3,-5.584 -10.836,-5.584 -8.517,0 -13.486,5.253 -13.486,12.303 0,7.051 5.253,12.682 13.013,12.682 7.57,0 12.492,-5.111 12.492,-13.675 v -0.379 z"
         style="fill:#231916;fill-opacity:1;fill-rule:nonzero;stroke:none"
         id="path1638"
         inkscape:connector-curvature="0" />
    </g>
    <g
       id="g1640"
       transform="matrix(0.13254009,0,0,-0.15069076,32.641887,292.32411)">
      <path
         d="m 0,0 c -3.17,0 -5.347,-2.224 -5.347,-6.009 0,-3.502 2.082,-5.867 5.536,-5.867 1.751,0 3.076,0.615 4.448,2.034 v -7.144 c -1.893,-1.041 -3.832,-1.61 -6.009,-1.61 -6.908,0 -12.066,4.78 -12.066,12.539 0,7.335 5.063,12.446 12.161,12.446 2.223,0 4.069,-0.379 5.914,-1.467 V -2.034 C 3.075,-0.662 1.656,0 0,0"
         style="fill:#231916;fill-opacity:1;fill-rule:nonzero;stroke:none"
         id="path1642"
         inkscape:connector-curvature="0" />
    </g>
    <g
       id="g1644"
       transform="matrix(0.13254009,0,0,-0.15069076,34.096342,292.35251)">
      <path
         d="M 0,0 H -3.501 V 5.819 H 0 v 6.956 H 8.092 V 5.819 h 3.501 V 0 H 8.092 V -17.508 H 0 Z"
         style="fill:#231916;fill-opacity:1;fill-rule:nonzero;stroke:none"
         id="path1646"
         inkscape:connector-curvature="0" />
    </g>
    <path
       d="m 36.171801,291.47566 h 1.091202 v 3.51516 h -1.091202 z m 0.545667,-1.78283 c 0.332411,0 0.601997,0.29958 0.601997,0.68459 0,0.38502 -0.275948,0.69167 -0.601997,0.69167 -0.33864,0 -0.602129,-0.3279 -0.602129,-0.69167 0,-0.3707 0.269719,-0.68459 0.602129,-0.68459"
       style="fill:#231916;fill-opacity:1;fill-rule:nonzero;stroke:none;stroke-width:0.14132433"
       id="path1648"
       inkscape:connector-curvature="0" />
    <g
       id="g1650"
       transform="matrix(0.13254009,0,0,-0.15069076,39.645942,292.39534)">
      <path
         d="m 0,0 c -3.028,0 -4.874,-2.177 -4.874,-5.631 0,-3.454 1.846,-5.583 4.874,-5.583 3.028,0 4.874,2.129 4.874,5.583 C 4.874,-2.177 3.028,0 0,0 m 0,-18.123 c -7.429,0 -13.013,5.631 -13.013,12.492 0,6.908 5.631,12.492 13.013,12.492 7.382,0 13.06,-5.584 13.06,-12.492 0,-6.908 -5.678,-12.492 -13.06,-12.492"
         style="fill:#231916;fill-opacity:1;fill-rule:nonzero;stroke:none"
         id="path1652"
         inkscape:connector-curvature="0" />
    </g>
    <g
       id="g1654"
       transform="matrix(0.13254009,0,0,-0.15069076,42.003313,291.4756)">
      <path
         d="m 0,0 h 7.523 v -4.731 c 2.224,3.833 4.874,5.489 8.944,5.489 3.028,0 5.488,-1.041 6.908,-2.84 1.562,-1.987 1.703,-4.542 1.703,-7.901 v -13.344 h -8.233 v 12.492 c 0,3.644 -1.088,5.347 -3.832,5.347 -3.692,0 -4.922,-2.792 -4.922,-8.044 v -9.795 H 0 Z"
         style="fill:#231916;fill-opacity:1;fill-rule:nonzero;stroke:none"
         id="path1656"
         inkscape:connector-curvature="0" />
    </g>
    <g
       id="g1658"
       transform="matrix(0.13254009,0,0,-0.15069076,0.2774173,295.86392)">
      <path
         d="m 0,0 c 8.175,0 15.382,-2.879 22.973,-2.591 11.622,0.444 23.359,0.617 34.84,0.169 4.789,-0.188 8.985,1.009 13.902,1.199 8.888,0.346 17.274,-3.467 26.212,-3.656 11.576,-0.243 23.261,0.608 34.886,0.608 5.772,0 12.519,-0.954 18.242,-0.029 2.811,0.455 4.885,2.274 7.359,2.853 10.258,2.407 23.021,-1.01 33.61,-0.993 5.053,0.009 10.161,0.21 15.205,0.031 10.342,-0.365 20.772,0.807 31.089,0.621 5.699,-0.1 11.324,-1.213 17.091,-1.258 8.289,-0.064 17.816,2.004 25.904,1.106 14.356,-1.594 27.855,0.582 42.196,0.102 12.743,-0.424 16.383,1.178 29.223,1.838 2.949,0.152 5.635,0.033 8.428,1.22"
         style="fill:none;stroke:#231916;stroke-width:2;stroke-linecap:round;stroke-linejoin:round;stroke-miterlimit:4;stroke-dasharray:none;stroke-opacity:1"
         id="path1660"
         inkscape:connector-curvature="0" />
    </g>
    <g
       id="g1662"
       transform="matrix(0.13254009,0,0,-0.15069076,5.7164782,287.34887)">
      <path
         d="M 0,0 C 0.254,-0.195 -0.334,-1.696 -0.763,-2.041 -1.192,-2.387 -2.287,-1.747 -2.295,-1.377 -2.303,-1.005 -0.482,0.369 0,0 m 9.762,-54.117 c -0.604,0.315 -0.381,1.085 -0.529,2.686 -0.147,1.601 -6.565,12.093 -6.767,12.93 -0.202,0.838 -2.354,1.769 -2.322,3.124 0.032,1.354 -1.136,3.085 -1.41,3.581 -0.273,0.498 -0.386,3.368 -0.601,4.545 -0.216,1.176 0.111,1.442 0.076,2.372 -0.037,0.929 0.207,1.192 0.352,1.79 0.146,0.598 1.25,0.472 1.656,0.911 0.088,0.094 0.063,0.527 -0.036,1.21 0.231,0 0.563,0.012 0.875,0.263 0.515,0.417 0.793,0.961 1.278,1.849 0.484,0.888 0.903,0.595 1.218,1.334 0.315,0.738 0.472,0.506 0.662,0.752 0.19,0.249 -0.13,0.746 -0.03,1.201 0.097,0.457 0.828,2.137 1.048,2.864 0.22,0.727 -0.746,5.53 -0.988,6.164 -0.242,0.635 -1.072,0.999 -1.843,1.357 -0.583,0.273 -1.385,1.553 -1.762,2.008 -0.142,0.172 -0.401,0.602 -0.607,0.813 0.122,0.336 0.23,0.622 0.298,0.87 0.172,0.625 0.402,1.522 0.135,1.856 C -0.028,0.98 -2.473,-0.435 -2.557,-0.764 -2.641,-1.09 -3.83,2.124 -5.762,2.295 -5.898,2.497 -5.99,2.637 -6.006,2.701 -6.097,3.08 -6.904,4.054 -7.445,4.534 -7.453,4.733 -7.449,4.991 -7.438,5.3 -7.305,4.925 -6.809,4.745 -6.916,4.864 -7.045,5.009 -7.148,5.729 -6.99,5.484 -6.83,5.242 -6.328,5.137 -6.457,5.257 -6.586,5.375 -6.695,6.244 -6.482,5.903 -6.27,5.563 -5.455,5.795 -5.629,5.762 -5.803,5.73 -5.891,6.076 -6.172,6.265 c 1.66,0.887 2.49,5.134 1.115,6.502 -0.625,0.623 -1.968,1.232 -3.694,2.017 -0.884,0.403 -5.456,-0.406 -6.515,-3.173 -0.357,-0.929 0.94,-2.039 1.051,-1.997 0.015,0.006 0.049,0.039 0.098,0.093 0,-0.277 -0.002,-0.492 -0.016,-0.588 -0.051,-0.326 -0.267,-0.594 -0.588,-0.781 -0.416,-0.245 0.39,-0.336 0.354,-0.627 -0.037,-0.29 -0.119,-0.281 -0.063,-0.868 0.056,-0.59 0.643,-2.371 0.818,-2.379 0.432,-0.022 0.717,0.124 1.11,-0.054 0.362,-0.163 0.693,-0.513 0.775,-0.904 0.022,-0.105 0.073,-0.196 0.124,-0.287 0.076,-0.136 0.219,-0.251 0.215,-0.421 -0.004,-0.15 -0.147,-0.264 -0.251,-0.355 -0.088,-0.077 -0.179,-0.151 -0.269,-0.227 -0.408,-0.356 -1.395,-1.071 -1.635,-1.419 -0.12,-0.173 0.58,-1.331 0.603,-2.43 0.022,-1.098 -0.254,-3.223 -0.185,-3.898 0.137,-1.347 0.643,-7.757 0.607,-9.027 -0.034,-1.27 -0.439,-1.71 -0.708,-3.497 -0.268,-1.786 -0.569,-2.728 -0.709,-3.496 -0.138,-0.765 0.525,-0.401 0.47,-1.165 -0.055,-0.763 0.807,-1.152 0.178,-2.362 -0.631,-1.208 -4.792,-20.151 -6.051,-22.569 -1.258,-2.418 -0.107,-3.727 -0.506,-4.334 -0.399,-0.608 -1.366,-1.831 -1.775,-2.184 -0.408,-0.356 -0.102,-1.696 -1.571,-0.908 -1.469,0.788 -3.646,0.195 -3.617,-0.566 0.031,-0.759 2.436,-1.68 4.389,-1.857 1.951,-0.177 3.092,0.968 3.296,0.045 0.206,-0.923 2.929,-1.322 3.337,-0.969 0.41,0.355 -0.742,-0.452 0.302,0.942 1.045,1.395 5.588,23.567 7.329,20.167 1.74,-3.4 10.452,-14.138 11.316,-14.611 0.865,-0.474 0.868,-0.559 0.392,-1.34 -0.478,-0.779 -1.276,-1.995 -2.873,-2.226 -1.599,-0.234 -1.982,-1.263 -1.603,-2.264 0.377,-1 5.685,-0.453 6.695,-0.328 1.01,0.124 1.399,0.986 1.834,0.664 0.436,-0.321 0.788,-0.646 2.176,0.594 1.39,1.237 0.584,2.39 -0.021,2.705"
         style="fill:#231916;fill-opacity:1;fill-rule:nonzero;stroke:none"
         id="path1664"
         inkscape:connector-curvature="0" />
    </g>
  </g>
</svg>
