<?xml version="1.0" encoding="utf-8"?>
<!-- Generator: Adobe Illustrator 17.1.0, SVG Export Plug-In . SVG Version: 6.00 Build 0)  -->
<!DOCTYPE svg PUBLIC "-//W3C//DTD SVG 1.1//EN" "http://www.w3.org/Graphics/SVG/1.1/DTD/svg11.dtd">
<svg version="1.1" id="レイヤー_1" xmlns="http://www.w3.org/2000/svg" xmlns:xlink="http://www.w3.org/1999/xlink" x="0px"
	 y="0px" viewBox="0 0 350 350" enable-background="new 0 0 350 350" xml:space="preserve">
<path fill="#B43E4C" d="M175,175"/>
<path fill="#188AB4" d="M175.1,350h-0.2C78.3,349.9,0,271.6,0,175S78.4,0,175,0s175,78.4,175,175S271.7,349.9,175.1,350L175.1,350z"
	/>
<path fill="#0D677E" d="M175,175"/>
<path fill="#0D677E" d="M187.9,79.7l153.8,150.1c-18.3,49.8-54.7,90.6-107.1,109.8L81.5,195.4l37.9-17.4"/>
<g>
	<path fill="#FFFFFF" d="M73.1,177.5c0-5.9,2.2-11.7,6.7-16.2l78.9-78.9c9-9,23.5-9,32.4,0l78.9,78.9c9,9,9,23.5,0,32.4
		c-9,9-23.5,9-32.4,0l-62.7-62.6l-62.7,62.7c-9,9-23.5,9-32.4,0C75.3,189.3,73.1,183.4,73.1,177.5z"/>
	<path fill="#FFFFFF" d="M165.7,268.3c-7.6,0-13.7-5.7-13.7-12.6V107.4c0-7,6.1-12.6,13.7-12.6H184c7.6,0,13.7,5.7,13.7,12.6v148.2
		c0,7-6.1,12.6-13.7,12.6h-18.3V268.3z"/>
</g>
</svg>
