<?xml version="1.0" encoding="utf-8"?>
<!-- Generator: Adobe Illustrator 17.1.0, SVG Export Plug-In . SVG Version: 6.00 Build 0)  -->
<!DOCTYPE svg PUBLIC "-//W3C//DTD SVG 1.1//EN" "http://www.w3.org/Graphics/SVG/1.1/DTD/svg11.dtd">
<svg version="1.1" id="レイヤー_1" xmlns="http://www.w3.org/2000/svg" xmlns:xlink="http://www.w3.org/1999/xlink" x="0px"
	 y="0px" viewBox="0 0 350 350" enable-background="new 0 0 350 350" xml:space="preserve">
<g id="CloudUp">
	<circle fill="#F5D23D" cx="175" cy="175" r="175"/>
	<path opacity="0.1" d="M337.9,238.9L206.2,108.2L156,145.3L109.7,189l-16.3,26.8l-20.9,11l122,122
		C260.1,341.6,314.7,298.1,337.9,238.9z"/>
	<g>
		<g>
			<path fill="#FFFFFF" d="M259.3,182.7c1.4-11.9-10.8-24.2-21.3-17.3c-11.2-84.3-87.2-78.9-104.3-30.5c-12.3-4.5-32.9-12.8-44.8,29
				c-51.1,39.8-4.6,86.1,5.2,86.1c7.3,0,35.4,0,66.5,0v-38.2h-23l37.3-50.2l37.3,50.2h-23V250c34.4,0,65.7,0,69.4,0
				C280.9,250,303.3,201.4,259.3,182.7z"/>
		</g>
	</g>
</g>
</svg>
