<?xml version="1.0" encoding="utf-8"?>
<!-- Generator: Adobe Illustrator 17.1.0, SVG Export Plug-In . SVG Version: 6.00 Build 0)  -->
<!DOCTYPE svg PUBLIC "-//W3C//DTD SVG 1.1//EN" "http://www.w3.org/Graphics/SVG/1.1/DTD/svg11.dtd">
<svg version="1.1" id="レイヤー_1" xmlns="http://www.w3.org/2000/svg" xmlns:xlink="http://www.w3.org/1999/xlink" x="0px"
	 y="0px" viewBox="0 0 350 350" enable-background="new 0 0 350 350" xml:space="preserve">
<path fill="#D8A450" d="M350,175c0,96.6-78.4,175-175,175C78.3,350,0,271.6,0,175S78.3,0,175,0C271.6,0,350,78.4,350,175z"/>
<g>
	<path opacity="0.1" d="M267.5,129.5c0.1,1.3,0.2,2.7,0.2,4.1c0,15.6-8,29.3-20.2,37.1c27.7,9.7,52,38.8,61.4,87.6
		c-26.6,0-61.4,0-94.2,0c-6.4-33-19.6-57-36-72.1c7.3-6.3,15-11.1,22.9-14.2c-11.8-6.7-20.1-18.7-21.9-32.8l-10.4-10.3
		c0.2,1.5,0.3,3.1,0.3,4.7c0,15.6-8,29.3-20.2,37.1c8.9,3.1,17.5,8.3,25.3,15.5c16.5,15.1,29.7,39.1,36,72.1c-21.9,0-49.2,0-76.5,0
		c-27.5,0-54.9,0-76.5,0l90.1,89.2c8.7,1.3,17.5,2,26.5,2c85.3,0,156.5-60.9,172.3-141.6L267.5,129.5z"/>
	<path fill="#FFFFFF" d="M201.5,172c-8,3.2-15.7,8-22.9,14.2c16.5,15.1,29.7,39.1,36,72.1c32.8,0,67.6,0,94.2,0
		c-9.4-48.7-33.7-77.9-61.4-87.6c12.2-7.9,20.2-21.6,20.2-37.1c0-1.4-0.1-2.7-0.2-4.1c-2.1-22.5-21-40.1-44-40.1
		c-24.4,0-44.2,19.8-44.2,44.2c0,1.9,0.1,3.8,0.4,5.6C181.4,153.2,189.8,165.2,201.5,172z"/>
	<path fill="#FFFFFF" d="M210.7,258.3c-6.4-33-19.6-57-36-72.1c-7.8-7.2-16.4-12.4-25.3-15.5c12.2-7.9,20.2-21.6,20.2-37.1
		c0-1.6-0.1-3.2-0.3-4.7c-2.3-22.2-21.1-39.5-44-39.5c-24.4,0-44.2,19.8-44.2,44.2c0,16.4,9,30.8,22.2,38.4
		c-27.1,10.8-51.6,39.6-63.4,86.3c5.3,0,11.3,0,17.8,0c21.6,0,48.9,0,76.5,0C161.5,258.3,188.8,258.3,210.7,258.3z"/>
</g>
</svg>
