<?xml version="1.0" encoding="utf-8"?>
<!-- Generator: Adobe Illustrator 17.1.0, SVG Export Plug-In . SVG Version: 6.00 Build 0)  -->
<!DOCTYPE svg PUBLIC "-//W3C//DTD SVG 1.1//EN" "http://www.w3.org/Graphics/SVG/1.1/DTD/svg11.dtd">
<svg version="1.1" id="レイヤー_1" xmlns="http://www.w3.org/2000/svg" xmlns:xlink="http://www.w3.org/1999/xlink" x="0px"
	 y="0px" viewBox="0 0 350 350" enable-background="new 0 0 350 350" xml:space="preserve">
<g id="_x34_PersonConnect">
	<path fill="#2E6CD8" d="M350,175c0,96.6-78.4,175-175,175C78.3,350,0,271.6,0,175S78.3,0,175,0C271.6,0,350,78.3,350,175z"/>
	<g>
		<path fill="#FFFFFF" d="M180.8,324.2c4.7,0,9.4,0,14.1,0c12.9,0,25.3,0,35.8,0c-3-15.8-8.5-28.4-15.5-37.9
			c-2.5-3.4-5.2-6.5-8.1-9.1c-5.1-4.7-10.7-8.1-16.5-10.1c7.9-5.1,13.2-14.1,13.2-24.2c0-14.3-10.4-26.1-24-28.4V136
			c0.3,0,0.6,0,0.9,0c4.7,0,9.4,0,14.1,0c12.9,0,25.3,0,35.8,0c-3-15.8-8.5-28.4-15.5-37.9c-2.5-3.4-5.2-6.5-8.1-9.1
			c-5.1-4.7-10.7-8.1-16.5-10.1c7.7-5,12.8-13.6,13.1-23.4c0-0.3,0.1-0.6,0.1-0.9c0-15.9-12.9-28.8-28.8-28.8s-28.8,12.9-28.8,28.8
			c0,10.7,5.8,20.1,14.5,25c-8,3.2-15.6,8.8-22.3,16.7c-8.1,9.7-14.9,22.9-19.1,39.6c10,0,23.8,0,38.8,0c4.5,0,9.2,0,13.9,0v78.2
			c-14.5,1.5-25.9,13.8-25.9,28.7c0,10.7,5.8,20.1,14.5,25c-8,3.2-15.6,8.8-22.3,16.7c-8.1,9.7-14.9,22.9-19.1,39.6
			c5.2,0,11.5,0,18.4,0c6.3,0,13.2,0,20.4,0C165.4,324.2,173.1,324.2,180.8,324.2z"/>
	</g>
</g>
<path fill="#2D5BA5" d="M203.8,55.4c-0.3,9.8-5.4,18.4-13.1,23.4c5.8,2,11.4,5.4,16.5,10.1c2.8,2.6,5.5,5.7,8.1,9.1
	c6.9,9.5,12.4,22.1,15.5,37.9c-10.5,0-22.9,0-35.8,0c-4.7,0-9.4,0-14.1,0c-0.3,0-0.6,0-0.9,0v78.5c13.6,2.3,24,14.1,24,28.4
	c0,10.2-5.2,19.1-13.2,24.2c5.8,2,11.4,5.4,16.5,10.1c2.8,2.6,5.5,5.7,8.1,9.1c6.9,9.5,12.4,22.1,15.5,37.9c-10.5,0-22.9,0-35.8,0
	c-4.7,0-9.4,0-14.1,0c-7.7,0-15.3,0-22.7,0c-7.2,0-14.1,0-20.4,0l25.6,25.3c3.9,0.3,7.8,0.4,11.8,0.4c88.6,0,161.9-65.9,173.4-151.4
	L203.8,55.4z"/>
</svg>
