<?xml version="1.0" encoding="utf-8"?>
<!-- Generator: Adobe Illustrator 17.1.0, SVG Export Plug-In . SVG Version: 6.00 Build 0)  -->
<!DOCTYPE svg PUBLIC "-//W3C//DTD SVG 1.1//EN" "http://www.w3.org/Graphics/SVG/1.1/DTD/svg11.dtd">
<svg version="1.1" id="レイヤー_1" xmlns="http://www.w3.org/2000/svg" xmlns:xlink="http://www.w3.org/1999/xlink" x="0px"
	 y="0px" viewBox="0 0 350 350" enable-background="new 0 0 350 350" xml:space="preserve">
<g id="_x31_1Glass">
	<path fill="#ED8C2B" d="M350,175c0,96.7-78.4,175-175,175C78.3,350,0,271.7,0,175C0,78.4,78.3,0,175,0C271.6,0,350,78.4,350,175z"
		/>
	<g>
		<path opacity="0.1" d="M349.9,172.2l-62.4-61.7c4.6,10.6,7.2,22.3,7.2,34.6c0,48.2-39.2,87.4-87.4,87.4
			c-17.4,0-33.6-5.1-47.2-13.8c-0.7,1-1.5,1.9-2.4,2.8c-0.3,0.3-0.6,0.6-0.9,0.9c-20.5,21-41.1,42-61.7,63
			c-2.9,2.9-6.4,4.8-10.1,5.8l56,55.4c11,2.2,22.3,3.3,33.9,3.3c96.6,0,175-78.3,175-175C350,174.1,349.9,173.2,349.9,172.2z"/>
		<path opacity="0.1" d="M207.3,82.7c-34.4,0-62.4,28-62.4,62.4c0,34.4,28,62.4,62.4,62.4c34.4,0,62.4-28,62.4-62.4
			C269.8,110.7,241.7,82.7,207.3,82.7z M161.7,178c6.3-24.9,19.4-40.3,33.9-46.1c-7.1-4.1-11.9-11.7-11.9-20.5
			c0-13,10.6-23.6,23.6-23.6c13,0,23.6,10.6,23.6,23.6c0,8.3-4.3,15.6-10.8,19.8c14.8,5.2,27.8,20.7,32.8,46.8
			C225.9,178,183.1,178,161.7,178z"/>
		<path fill="#FFFFFF" d="M156.9,222.4c0.3-0.3,0.6-0.6,0.9-0.9c0.9-0.9,1.7-1.8,2.4-2.8c13.6,8.8,29.8,13.8,47.2,13.8
			c48.2,0,87.4-39.2,87.4-87.4c0-12.3-2.6-24-7.2-34.6c-13.4-31-44.3-52.8-80.3-52.8c-48.2,0-87.4,39.2-87.4,87.4
			c0,14.3,3.4,27.8,9.5,39.7c-1.8,1-3.5,2.3-5,3.8c-20.6,21-41.1,42-61.7,63c-0.3,0.3-0.6,0.6-0.9,0.9c-8.9,9.1-8.9,24.1,0.2,33.1
			c6.2,6.1,15.1,7.9,23,5.7c3.7-1.1,7.2-2.9,10.1-5.8C115.8,264.4,136.4,243.4,156.9,222.4z M207.3,207.6c-34.4,0-62.4-28-62.4-62.4
			c0-34.4,28-62.4,62.4-62.4c34.4,0,62.4,28,62.4,62.4C269.8,179.6,241.7,207.6,207.3,207.6z"/>
		<path fill="#FFFFFF" d="M220.1,131.2c6.5-4.2,10.8-11.5,10.8-19.8c0-13-10.6-23.6-23.6-23.6c-13,0-23.6,10.6-23.6,23.6
			c0,8.8,4.8,16.4,11.9,20.5c-14.5,5.8-27.6,21.2-33.9,46.1c21.4,0,64.2,0,91.2,0C247.8,152,234.9,136.4,220.1,131.2z"/>
	</g>
</g>
</svg>
