<?xml version="1.0" encoding="UTF-8" standalone="no"?>
<svg
   xmlns:dc="http://purl.org/dc/elements/1.1/"
   xmlns:cc="http://creativecommons.org/ns#"
   xmlns:rdf="http://www.w3.org/1999/02/22-rdf-syntax-ns#"
   xmlns:svg="http://www.w3.org/2000/svg"
   xmlns="http://www.w3.org/2000/svg"
   xmlns:sodipodi="http://sodipodi.sourceforge.net/DTD/sodipodi-0.dtd"
   xmlns:inkscape="http://www.inkscape.org/namespaces/inkscape"
   width="150mm"
   height="150mm"
   viewBox="0 0 150 150"
   version="1.1"
   id="svg8"
   inkscape:version="1.0.1 (3bc2e813f5, 2020-09-07)"
   sodipodi:docname="wordbook.svg">
  <defs
     id="defs2">
    <clipPath
       clipPathUnits="userSpaceOnUse"
       id="clipPath932">
      <path
         d="M 0,1200 H 1200 V 0 H 0 Z"
         id="path930" />
    </clipPath>
    <clipPath
       clipPathUnits="userSpaceOnUse"
       id="clipPath19042">
      <path
         d="m 192.973,301.772 c -0.317,0 -0.576,-0.249 -0.576,-0.551 v 0 -0.194 c 0,-0.307 0.259,-0.556 0.576,-0.556 v 0 h 2.739 c 0.317,0 0.573,0.249 0.573,0.556 v 0 0.194 c 0,0.302 -0.256,0.551 -0.573,0.551 v 0 z m 0,-0.251 h 2.739 -0.339 l 0.068,-0.073 -0.169,-0.177 -0.167,0.177 0.069,0.073 h -0.422 l 0.069,-0.073 -0.169,-0.177 -0.167,0.177 0.069,0.073 h -0.423 l 0.069,-0.073 -0.168,-0.177 -0.167,0.177 0.069,0.073 h -0.423 l 0.069,-0.073 -0.168,-0.177 -0.169,0.177 0.07,0.073 h -0.34 c -0.011,0 -0.024,0 -0.037,-0.005 v 0 c 0.013,0.005 0.026,0.005 0.037,0.005 m -0.037,-0.005 c 0,0 0,0 0,0 m -0.241,-0.144 c 0.045,0.071 0.119,0.121 0.207,0.139 v 0 l 0.06,-0.063 -0.169,-0.177 z m 3.031,0.076 0.058,0.063 c 0.088,-0.019 0.161,-0.07 0.205,-0.139 v 0 l -0.097,-0.101 z m -3.031,-0.076 c -0.009,-0.013 -0.018,-0.031 -0.025,-0.048 v 0 c 0.007,0.017 0.016,0.035 0.025,0.048 m -0.028,-0.056 c 0,-0.007 -0.002,-0.01 -0.006,-0.012 v 0 c 0.004,0.002 0.006,0.005 0.006,0.012 m 2.746,-0.192 0.17,0.174 0.171,-0.174 -0.171,-0.179 z m -0.618,0 0.168,0.174 0.168,-0.174 -0.168,-0.179 z m -0.622,0 0.168,0.174 0.17,-0.174 -0.17,-0.179 z m -0.617,0 0.165,0.174 0.171,-0.174 -0.171,-0.179 z m -0.62,0 0.166,0.174 0.168,-0.174 -0.168,-0.179 z m -0.276,0.162 c -0.002,-0.004 -0.004,-0.007 -0.006,-0.011 v 0 c 0.002,0.004 0.004,0.007 0.006,0.011 m 3.373,-0.287 c 0,-0.003 0,-0.003 0,-0.005 v 0 c 0,0.002 0,0.002 0,0.005 m -0.004,-0.027 c 0,-0.004 -0.002,-0.008 -0.004,-0.014 v 0 c 0.002,0.006 0.004,0.01 0.004,0.014 m -0.303,-0.176 0.166,0.176 0.097,-0.1 c -0.045,-0.07 -0.117,-0.121 -0.203,-0.138 v 0 z m -0.621,0 0.167,0.176 0.169,-0.176 -0.068,-0.073 h -0.201 z m -0.62,0 0.167,0.176 0.169,-0.176 -0.067,-0.073 h -0.2 z m -0.62,0 0.167,0.176 0.168,-0.176 -0.069,-0.073 h -0.197 z m -0.622,0 0.169,0.176 0.168,-0.176 -0.067,-0.073 h -0.2 z m -0.548,0.076 0.098,0.1 0.169,-0.176 -0.061,-0.062 c -0.088,0.017 -0.161,0.068 -0.206,0.138 m 3.328,0.068 c -0.003,-0.003 -0.005,-0.006 -0.007,-0.012 v 0 c 0.002,0.006 0.004,0.009 0.007,0.012 m -0.009,-0.019 c -0.007,-0.018 -0.015,-0.032 -0.025,-0.049 v 0 c 0.01,0.017 0.018,0.031 0.025,0.049 m -0.23,-0.187 c -0.008,-0.003 -0.02,-0.006 -0.03,-0.006 v 0 c 0.01,0 0.022,0.003 0.03,0.006 m -0.036,-0.006 c -0.011,-0.005 -0.022,-0.005 -0.035,-0.005 v 0 c 0.013,0 0.024,0 0.035,0.005"
         id="path19040" />
    </clipPath>
  </defs>
  <sodipodi:namedview
     id="base"
     pagecolor="#ffffff"
     bordercolor="#666666"
     borderopacity="1.0"
     inkscape:pageopacity="0.0"
     inkscape:pageshadow="2"
     inkscape:zoom="0.98994949"
     inkscape:cx="606.03839"
     inkscape:cy="139.17337"
     inkscape:document-units="mm"
     inkscape:current-layer="g22868"
     inkscape:document-rotation="0"
     showgrid="false"
     inkscape:window-width="1639"
     inkscape:window-height="1040"
     inkscape:window-x="25"
     inkscape:window-y="6"
     inkscape:window-maximized="0" />
  <metadata
     id="metadata5">
    <rdf:RDF>
      <cc:Work
         rdf:about="">
        <dc:format>image/svg+xml</dc:format>
        <dc:type
           rdf:resource="http://purl.org/dc/dcmitype/StillImage" />
        <dc:title></dc:title>
      </cc:Work>
    </rdf:RDF>
  </metadata>
  <g
     inkscape:label="レイヤー 1"
     inkscape:groupmode="layer"
     id="layer1">
    <g
       id="g922"
       inkscape:label="shutterstock_242174266"
       transform="matrix(0.30469125,0,0,-0.30471198,24.360229,397.21196)">
      <g
         id="g22864"
         transform="matrix(16.737552,0,0,16.737552,412.35108,1057.4396)">
        <path
           d="m 0,0 c 0,-8.122 -6.585,-14.706 -14.707,-14.706 -8.123,0 -14.706,6.584 -14.706,14.706 0,8.122 6.583,14.705 14.706,14.705 C -6.585,14.705 0,8.122 0,0"
           style="fill:#bae1f6;fill-opacity:1;fill-rule:nonzero;stroke:none"
           id="path22866" />
      </g>
      <g
         id="g22868"
         transform="matrix(16.737552,0,0,16.737552,411.8841,1042.3523)">
        <path
           d="M 0,0 -6.03,6.03 H -6.116 L -6.481,6.369 C -6.5,6.413 -6.533,6.456 -6.569,6.48 c -2.735,1.633 -5.464,1.633 -8.196,0 -2.735,1.633 -5.465,1.633 -8.198,0 -0.062,-0.042 -0.113,-0.134 -0.113,-0.204 V 6.03 h -0.427 V -5.701 l 8.085,-8.086 c 0.244,-0.01 0.491,-0.017 0.739,-0.017 C -6.86,-13.804 -0.467,-7.702 0,0"
           style="fill:#7eb9ff;fill-opacity:1;fill-rule:nonzero;stroke:none"
           id="path22870" />
      </g>
      <path
         d="M 310.96335,946.94494 H 18.508097 V 1143.2932 H 310.96335 Z"
         style="fill:#9b5ab6;fill-opacity:1;fill-rule:nonzero;stroke:none;stroke-width:16.7375"
         id="path22872" />
      <g
         id="g22874"
         transform="matrix(16.737552,0,0,16.737552,164.75246,1150.8117)">
        <path
           d="M 0,0 C -2.735,1.633 -5.465,1.633 -8.198,0 -8.26,-0.042 -8.311,-0.134 -8.311,-0.204 v -10.719 c 0,-0.069 0.051,-0.088 0.113,-0.044 2.733,1.634 5.463,1.634 8.198,0 0.062,-0.044 0.112,-0.025 0.112,0.044 -0.002,3.574 -0.002,7.147 0,10.719 0,0.07 -0.05,0.162 -0.112,0.204"
           style="fill:#ecf0f0;fill-opacity:1;fill-rule:nonzero;stroke:none"
           id="path22876" />
      </g>
      <g
         id="g22878"
         transform="matrix(16.737552,0,0,16.737552,149.05264,1135.0633)">
        <path
           d="m 0,0 c -2.201,0.889 -4.079,0.893 -6.285,0.019 -0.087,-0.043 -0.159,-0.005 -0.159,0.084 0,0.091 0.072,0.204 0.159,0.245 C -4.079,1.223 -2.202,1.217 0,0.331 0.088,0.286 0.159,0.176 0.159,0.085 0.159,-0.007 0.088,-0.043 0,0"
           style="fill:#585c6e;fill-opacity:1;fill-rule:nonzero;stroke:none"
           id="path22880" />
      </g>
      <g
         id="g22882"
         transform="matrix(16.737552,0,0,16.737552,149.05264,1115.9072)">
        <path
           d="m 0,0 c -2.201,0.886 -4.079,0.893 -6.285,0.017 -0.087,-0.041 -0.159,-0.005 -0.159,0.087 0,0.089 0.072,0.201 0.159,0.244 C -4.079,1.223 -2.201,1.217 0,0.329 0.088,0.286 0.159,0.176 0.159,0.083 0.159,-0.007 0.088,-0.044 0,0"
           style="fill:#585c6e;fill-opacity:1;fill-rule:nonzero;stroke:none"
           id="path22884" />
      </g>
      <g
         id="g22886"
         transform="matrix(16.737552,0,0,16.737552,149.05264,1096.7494)">
        <path
           d="m 0,0 c -2.201,0.886 -4.079,0.893 -6.285,0.017 -0.087,-0.043 -0.159,-0.006 -0.159,0.087 0,0.089 0.072,0.199 0.159,0.245 C -4.079,1.222 -2.201,1.217 0,0.328 0.088,0.286 0.159,0.174 0.159,0.083 0.159,-0.006 0.088,-0.044 0,0"
           style="fill:#585c6e;fill-opacity:1;fill-rule:nonzero;stroke:none"
           id="path22888" />
      </g>
      <g
         id="g22890"
         transform="matrix(16.737552,0,0,16.737552,149.05264,1077.5681)">
        <path
           d="m 0,0 c -2.201,0.888 -4.079,0.895 -6.285,0.02 -0.087,-0.046 -0.159,-0.008 -0.159,0.084 0,0.091 0.072,0.202 0.159,0.245 C -4.079,1.224 -2.201,1.219 0,0.329 0.088,0.286 0.159,0.174 0.159,0.085 0.159,-0.008 0.088,-0.043 0,0"
           style="fill:#585c6e;fill-opacity:1;fill-rule:nonzero;stroke:none"
           id="path22892" />
      </g>
      <g
         id="g22894"
         transform="matrix(16.737552,0,0,16.737552,149.05264,1058.3953)">
        <path
           d="m 0,0 c -2.201,0.889 -4.079,0.894 -6.285,0.019 -0.087,-0.043 -0.159,-0.005 -0.159,0.084 0,0.093 0.072,0.204 0.159,0.245 C -4.079,1.223 -2.201,1.218 0,0.331 0.088,0.286 0.159,0.175 0.159,0.084 0.159,-0.007 0.088,-0.043 0,0"
           style="fill:#585c6e;fill-opacity:1;fill-rule:nonzero;stroke:none"
           id="path22896" />
      </g>
      <g
         id="g22898"
         transform="matrix(16.737552,0,0,16.737552,149.05264,1039.2391)">
        <path
           d="m 0,0 c -2.201,0.888 -4.079,0.893 -6.285,0.017 -0.087,-0.041 -0.159,-0.005 -0.159,0.086 0,0.09 0.072,0.202 0.159,0.245 C -4.079,1.223 -2.201,1.217 0,0.329 0.088,0.286 0.159,0.176 0.159,0.083 0.159,-0.007 0.088,-0.045 0,0"
           style="fill:#585c6e;fill-opacity:1;fill-rule:nonzero;stroke:none"
           id="path22900" />
      </g>
      <g
         id="g22902"
         transform="matrix(16.737552,0,0,16.737552,149.05264,1020.083)">
        <path
           d="m 0,0 c -2.201,0.886 -4.079,0.893 -6.285,0.017 -0.087,-0.041 -0.159,-0.006 -0.159,0.087 0,0.089 0.072,0.199 0.159,0.244 C -4.079,1.224 -2.201,1.217 0,0.329 0.088,0.286 0.159,0.174 0.159,0.083 0.159,-0.006 0.088,-0.044 0,0"
           style="fill:#585c6e;fill-opacity:1;fill-rule:nonzero;stroke:none"
           id="path22904" />
      </g>
      <g
         id="g22906"
         transform="matrix(16.737552,0,0,16.737552,149.05264,1000.9018)">
        <path
           d="m 0,0 c -2.201,0.888 -4.079,0.894 -6.285,0.019 -0.087,-0.045 -0.159,-0.007 -0.159,0.085 0,0.091 0.072,0.201 0.159,0.245 C -4.079,1.224 -2.201,1.218 0,0.329 0.088,0.286 0.159,0.174 0.159,0.084 0.159,-0.006 0.088,-0.043 0,0"
           style="fill:#585c6e;fill-opacity:1;fill-rule:nonzero;stroke:none"
           id="path22908" />
      </g>
      <g
         id="g22910"
         transform="matrix(16.737552,0,0,16.737552,301.9301,1150.8117)">
        <path
           d="m 0,0 c -2.735,1.633 -5.463,1.633 -8.198,0 -0.062,-0.042 -0.11,-0.134 -0.11,-0.204 v -10.719 c 0,-0.069 0.048,-0.088 0.11,-0.044 2.735,1.634 5.463,1.634 8.198,0 0.062,-0.044 0.112,-0.025 0.112,0.044 V -0.204 C 0.112,-0.134 0.062,-0.042 0,0"
           style="fill:#ecf0f0;fill-opacity:1;fill-rule:nonzero;stroke:none"
           id="path22912" />
      </g>
      <g
         id="g22914"
         transform="matrix(16.737552,0,0,16.737552,286.23864,1135.0633)">
        <path
           d="m 0,0 c -2.201,0.889 -4.079,0.893 -6.285,0.019 -0.088,-0.043 -0.159,-0.005 -0.159,0.084 0,0.091 0.071,0.204 0.159,0.245 C -4.079,1.223 -2.201,1.217 0,0.331 0.088,0.286 0.158,0.176 0.158,0.085 0.158,-0.007 0.088,-0.043 0,0"
           style="fill:#585c6e;fill-opacity:1;fill-rule:nonzero;stroke:none"
           id="path22916" />
      </g>
      <g
         id="g22918"
         transform="matrix(16.737552,0,0,16.737552,286.23864,1115.9072)">
        <path
           d="m 0,0 c -2.201,0.886 -4.079,0.893 -6.285,0.017 -0.088,-0.041 -0.159,-0.005 -0.159,0.087 0,0.089 0.071,0.201 0.159,0.244 C -4.079,1.223 -2.201,1.217 0,0.329 0.088,0.286 0.158,0.176 0.158,0.083 0.158,-0.007 0.088,-0.044 0,0"
           style="fill:#585c6e;fill-opacity:1;fill-rule:nonzero;stroke:none"
           id="path22920" />
      </g>
      <g
         id="g22922"
         transform="matrix(16.737552,0,0,16.737552,286.23864,1096.7494)">
        <path
           d="m 0,0 c -2.201,0.886 -4.079,0.893 -6.285,0.017 -0.088,-0.043 -0.159,-0.006 -0.159,0.087 0,0.089 0.071,0.199 0.159,0.245 C -4.079,1.222 -2.201,1.217 0,0.328 0.088,0.286 0.158,0.174 0.158,0.083 0.158,-0.006 0.088,-0.044 0,0"
           style="fill:#585c6e;fill-opacity:1;fill-rule:nonzero;stroke:none"
           id="path22924" />
      </g>
      <g
         id="g22926"
         transform="matrix(16.737552,0,0,16.737552,286.23864,1077.5681)">
        <path
           d="m 0,0 c -2.201,0.888 -4.079,0.895 -6.285,0.02 -0.088,-0.046 -0.159,-0.008 -0.159,0.084 0,0.091 0.071,0.202 0.159,0.245 C -4.079,1.224 -2.201,1.219 0,0.329 0.088,0.286 0.158,0.174 0.158,0.085 0.158,-0.008 0.088,-0.043 0,0"
           style="fill:#585c6e;fill-opacity:1;fill-rule:nonzero;stroke:none"
           id="path22928" />
      </g>
      <g
         id="g22930"
         transform="matrix(16.737552,0,0,16.737552,286.23864,1058.3953)">
        <path
           d="m 0,0 c -2.201,0.889 -4.079,0.894 -6.285,0.019 -0.088,-0.043 -0.159,-0.005 -0.159,0.084 0,0.093 0.071,0.204 0.159,0.245 C -4.079,1.223 -2.201,1.218 0,0.331 0.088,0.286 0.158,0.175 0.158,0.084 0.158,-0.007 0.088,-0.043 0,0"
           style="fill:#585c6e;fill-opacity:1;fill-rule:nonzero;stroke:none"
           id="path22932" />
      </g>
      <g
         id="g22934"
         transform="matrix(16.737552,0,0,16.737552,286.23864,1039.2391)">
        <path
           d="m 0,0 c -2.201,0.888 -4.079,0.893 -6.285,0.017 -0.088,-0.041 -0.159,-0.005 -0.159,0.086 0,0.09 0.071,0.202 0.159,0.245 C -4.079,1.223 -2.201,1.217 0,0.329 0.088,0.286 0.158,0.176 0.158,0.083 0.158,-0.007 0.088,-0.045 0,0"
           style="fill:#585c6e;fill-opacity:1;fill-rule:nonzero;stroke:none"
           id="path22936" />
      </g>
      <g
         id="g22938"
         transform="matrix(16.737552,0,0,16.737552,286.23864,1020.083)">
        <path
           d="m 0,0 c -2.201,0.886 -4.079,0.893 -6.285,0.017 -0.088,-0.041 -0.159,-0.006 -0.159,0.087 0,0.089 0.071,0.199 0.159,0.244 C -4.079,1.224 -2.201,1.217 0,0.329 0.088,0.286 0.158,0.174 0.158,0.083 0.158,-0.006 0.088,-0.044 0,0"
           style="fill:#585c6e;fill-opacity:1;fill-rule:nonzero;stroke:none"
           id="path22940" />
      </g>
      <g
         id="g22942"
         transform="matrix(16.737552,0,0,16.737552,286.23864,1000.9018)">
        <path
           d="m 0,0 c -2.201,0.888 -4.079,0.894 -6.285,0.019 -0.088,-0.045 -0.159,-0.007 -0.159,0.085 0,0.091 0.071,0.201 0.159,0.245 C -4.079,1.224 -2.201,1.218 0,0.329 0.088,0.286 0.158,0.174 0.158,0.084 0.158,-0.006 0.088,-0.043 0,0"
           style="fill:#585c6e;fill-opacity:1;fill-rule:nonzero;stroke:none"
           id="path22944" />
      </g>
      <g
         id="g22946"
         transform="matrix(16.737552,0,0,16.737552,171.03741,962.50584)">
        <path
           d="m 0,0 c 0,-0.241 -0.148,-0.292 -0.333,-0.292 -0.183,0 -0.331,0.051 -0.331,0.292 0,0.242 0.331,0.438 0.331,0.438 C -0.333,0.438 0,0.242 0,0"
           style="fill:#c8cdd2;fill-opacity:1;fill-rule:nonzero;stroke:none"
           id="path22948" />
      </g>
      <g
         id="g22950"
         transform="matrix(16.737552,0,0,16.737552,157.12683,965.11355)">
        <path
           d="M 0,0 V 0.003 L -0.005,0.006 C -0.019,0.027 -0.04,0.048 -0.062,0.065 H -0.063 C -0.096,0.092 -0.13,0.117 -0.165,0.141 -0.67,0.551 -1.205,0.779 -1.74,0.961 -2.333,1.165 -2.946,1.268 -3.542,1.285 -4.136,1.303 -4.723,1.227 -5.275,1.065 -5.549,0.985 -5.82,0.878 -6.076,0.753 -6.333,0.627 -6.581,0.482 -6.813,0.31 V 0.3 c 0.232,0.144 0.48,0.275 0.735,0.385 0.257,0.109 0.526,0.197 0.8,0.266 0.549,0.138 1.135,0.196 1.73,0.169 0.016,0 0.031,-0.002 0.048,-0.002 C -3.543,1.116 -3.584,1.116 -3.627,1.113 -4.218,1.089 -4.803,0.968 -5.349,0.761 -5.623,0.66 -5.889,0.53 -6.142,0.382 -6.395,0.234 -6.638,0.065 -6.867,-0.13 c 0,-0.005 0.002,-0.005 0.002,-0.008 0.229,0.169 0.47,0.32 0.725,0.455 0.253,0.13 0.519,0.241 0.793,0.332 0.546,0.185 1.129,0.285 1.723,0.298 h 0.017 -0.005 C -4.203,0.893 -4.786,0.744 -5.33,0.506 -5.601,0.389 -5.864,0.245 -6.118,0.079 -6.369,-0.083 -6.608,-0.269 -6.836,-0.479 v -0.009 c 0.229,0.186 0.47,0.353 0.724,0.502 0.253,0.148 0.518,0.275 0.791,0.382 0.396,0.155 0.813,0.267 1.238,0.332 C -4.504,0.644 -4.915,0.511 -5.308,0.334 -5.578,0.21 -5.843,0.058 -6.094,-0.109 c -0.251,-0.167 -0.491,-0.36 -0.717,-0.575 0,-0.004 0.002,-0.006 0.002,-0.009 0.228,0.191 0.469,0.365 0.721,0.52 0.253,0.152 0.519,0.283 0.791,0.397 0.542,0.223 1.127,0.363 1.718,0.417 0.319,0.029 0.641,0.034 0.965,0.01 C -2.933,0.655 -3.25,0.632 -3.562,0.582 -4.148,0.489 -4.727,0.303 -5.265,0.027 c -0.269,-0.136 -0.53,-0.3 -0.78,-0.483 -0.25,-0.182 -0.488,-0.385 -0.71,-0.616 0,0 0,-0.004 0.002,-0.007 0.225,0.207 0.466,0.392 0.716,0.562 0.252,0.167 0.517,0.309 0.786,0.437 0.543,0.252 1.124,0.419 1.711,0.5 0.59,0.079 1.198,0.065 1.789,-0.026 0.559,-0.088 1.124,-0.302 1.638,-0.456 0.006,-0.004 0.011,-0.007 0.018,-0.011 0.073,-0.036 0.127,-0.029 0.119,0.019 C 0.022,-0.038 0.012,-0.02 0,0"
           style="fill:#c8cdd2;fill-opacity:1;fill-rule:nonzero;stroke:none"
           id="path22952" />
      </g>
      <g
         id="g22954"
         transform="matrix(16.737552,0,0,16.737552,174.00331,965.91528)">
        <path
           d="m 0,0 v -0.003 l 0.003,0.002 C 0.017,-0.005 0.037,-0.003 0.06,0.007 V 0.003 C 0.093,0.017 0.126,0.031 0.161,0.042 0.653,0.183 1.192,0.365 1.723,0.435 2.314,0.512 2.921,0.51 3.507,0.414 4.095,0.321 4.672,0.138 5.208,-0.126 5.477,-0.259 5.739,-0.41 5.989,-0.582 6.237,-0.756 6.475,-0.951 6.699,-1.162 6.7,-1.158 6.7,-1.156 6.7,-1.153 6.48,-0.92 6.246,-0.708 5.999,-0.521 5.753,-0.331 5.494,-0.162 5.227,-0.019 4.695,0.269 4.123,0.469 3.537,0.577 3.521,0.581 3.506,0.583 3.49,0.586 3.531,0.583 3.572,0.576 3.614,0.572 4.204,0.5 4.784,0.345 5.321,0.104 c 0.27,-0.121 0.532,-0.259 0.78,-0.421 0.25,-0.161 0.487,-0.341 0.71,-0.539 0.001,0.003 0.001,0.005 0.001,0.008 -0.22,0.223 -0.455,0.421 -0.703,0.597 C 5.863,-0.076 5.603,0.083 5.335,0.214 4.798,0.476 4.224,0.651 3.633,0.736 3.628,0.738 3.623,0.738 3.616,0.738 H 3.623 C 4.207,0.689 4.798,0.572 5.337,0.362 5.609,0.258 5.874,0.138 6.123,-0.007 6.375,-0.152 6.614,-0.317 6.84,-0.5 v 0.01 C 6.618,-0.283 6.378,-0.102 6.128,0.059 5.878,0.217 5.616,0.358 5.346,0.476 4.951,0.643 4.538,0.765 4.114,0.841 4.536,0.786 4.949,0.686 5.342,0.544 5.613,0.448 5.878,0.331 6.13,0.193 6.382,0.055 6.623,-0.103 6.85,-0.276 v 0.007 C 6.624,-0.069 6.385,0.107 6.135,0.26 5.884,0.414 5.618,0.548 5.35,0.658 4.805,0.875 4.224,1.008 3.631,1.048 3.312,1.068 2.987,1.062 2.663,1.031 2.985,1.082 3.306,1.106 3.621,1.106 4.216,1.11 4.799,1.031 5.344,0.869 5.618,0.786 5.884,0.689 6.137,0.569 6.391,0.448 6.633,0.307 6.862,0.151 V 0.162 C 6.633,0.343 6.392,0.5 6.139,0.638 5.885,0.772 5.618,0.889 5.346,0.982 4.798,1.167 4.213,1.265 3.619,1.272 3.026,1.279 2.411,1.201 1.813,1.022 1.243,0.851 0.675,0.632 0.135,0.202 0.129,0.2 0.124,0.197 0.118,0.193 0.042,0.146 -0.017,0.072 -0.017,0.027 -0.017,0.014 -0.012,0.003 0,0"
           style="fill:#c8cdd2;fill-opacity:1;fill-rule:nonzero;stroke:none"
           id="path22956" />
      </g>
    </g>
  </g>
</svg>
